<?xml version="1.0" encoding="UTF-8"?>
<svg xmlns="http://www.w3.org/2000/svg" viewBox="0 0 1800 1100" width="1800" height="1100" font-family="'Noto Sans CJK SC', 'PingFang SC', 'Microsoft YaHei', sans-serif">
  <defs>
    <linearGradient id="bgGrad" x1="0%" y1="0%" x2="0%" y2="100%">
      <stop offset="0%" style="stop-color:#f0f7ff;stop-opacity:1"/>
      <stop offset="100%" style="stop-color:#e8f4fd;stop-opacity:1"/>
    </linearGradient>
    <filter id="shadow" x="-5%" y="-5%" width="110%" height="110%">
      <feDropShadow dx="0" dy="2" stdDeviation="3" flood-color="#00000020"/>
    </filter>
    <marker id="arrowBlue" markerWidth="8" markerHeight="8" refX="6" refY="3" orient="auto">
      <path d="M0,0 L0,6 L8,3 z" fill="#1a56db"/>
    </marker>
    <marker id="arrowGray" markerWidth="8" markerHeight="8" refX="6" refY="3" orient="auto">
      <path d="M0,0 L0,6 L8,3 z" fill="#64748b"/>
    </marker>
    <marker id="arrowGreen" markerWidth="8" markerHeight="8" refX="6" refY="3" orient="auto">
      <path d="M0,0 L0,6 L8,3 z" fill="#059669"/>
    </marker>
  </defs>

  <!-- 背景 -->
  <rect width="1800" height="1100" fill="url(#bgGrad)"/>

  <!-- ══════════════════════════════════════════
       顶部标题区
  ══════════════════════════════════════════ -->
  <text x="900" y="42" font-size="32" font-weight="bold" fill="#0f172a" text-anchor="middle">凌犀 AI LMS 架构</text>
  <text x="900" y="65" font-size="13" fill="#64748b" text-anchor="middle">AI 驱动教育全流程 · 数据驱动教学决策 · 帮孩子有效出分</text>

  <!-- ══════════════════════════════════════════
       整体目标栏
  ══════════════════════════════════════════ -->
  <rect x="20" y="78" width="1760" height="38" rx="6" fill="white" stroke="#e2e8f0" stroke-width="1" filter="url(#shadow)"/>
  <rect x="24" y="82" width="72" height="30" rx="5" fill="#1a56db"/>
  <text x="60" y="102" font-size="12" font-weight="bold" fill="white" text-anchor="middle">整体目标</text>
  <text x="115" y="99" font-size="11" fill="#dc2626">🎯</text>
  <text x="130" y="100" font-size="11" fill="#374151">帮孩子有效出分</text>
  <text x="270" y="99" font-size="11" fill="#2563eb">📋</text>
  <text x="285" y="100" font-size="11" fill="#374151">过程留痕</text>
  <text x="390" y="99" font-size="11" fill="#059669">📈</text>
  <text x="405" y="100" font-size="11" fill="#374151">进度外化</text>
  <text x="510" y="99" font-size="11" fill="#7c3aed">📊</text>
  <text x="525" y="100" font-size="11" fill="#374151">差距外化</text>
  <text x="630" y="99" font-size="11" fill="#0891b2">⏱</text>
  <text x="645" y="100" font-size="11" fill="#374151">进度可控</text>
  <text x="750" y="99" font-size="11" fill="#b45309">🗄</text>
  <text x="765" y="100" font-size="11" fill="#374151">数据积累</text>
  <text x="870" y="99" font-size="11" fill="#1a56db">🤖</text>
  <text x="885" y="100" font-size="11" fill="#374151">AI 驱动不断优化</text>

  <!-- ══════════════════════════════════════════
       应用层（角色与场景）- 8个端，每个宽度约190px
       总宽1760，左边距20，间距8px
       每端宽度: (1760 - 8*8) / 8 = (1760-64)/8 = 212px
  ══════════════════════════════════════════ -->
  <rect x="20" y="124" width="1760" height="235" rx="8" fill="white" stroke="#bfdbfe" stroke-width="1.5" filter="url(#shadow)"/>
  <text x="900" y="144" font-size="14" font-weight="bold" fill="#1e40af" text-anchor="middle">应用层（角色与场景）</text>

  <!-- 教研端 x=28 w=210 -->
  <rect x="28" y="151" width="210" height="200" rx="8" fill="#f0fdf4" stroke="#86efac" stroke-width="1.5"/>
  <text x="58" y="170" font-size="13">🎓</text>
  <text x="76" y="171" font-size="13" font-weight="bold" fill="#15803d">教研端</text>
  <line x1="28" y1="177" x2="238" y2="177" stroke="#86efac" stroke-width="1"/>
  <text x="36" y="192" font-size="9.5" fill="#374151">· 课程与知识体系优化</text>
  <text x="36" y="206" font-size="9.5" fill="#374151">· 题库建设与迭代</text>
  <text x="36" y="220" font-size="9.5" fill="#374151">· 教学标准制定</text>
  <text x="36" y="234" font-size="9.5" fill="#374151">· 学习效果洞察</text>
  <!-- mock UI -->
  <rect x="36" y="244" width="194" height="100" rx="4" fill="white" stroke="#d1fae5" stroke-width="1"/>
  <rect x="40" y="248" width="88" height="38" rx="3" fill="#dcfce7"/>
  <rect x="132" y="248" width="94" height="38" rx="3" fill="#f0fdf4" stroke="#86efac" stroke-width="0.5"/>
  <rect x="40" y="290" width="186" height="48" rx="3" fill="#f9fafb"/>
  <rect x="44" y="295" width="35" height="6" rx="2" fill="#86efac"/>
  <rect x="44" y="305" width="55" height="6" rx="2" fill="#d1fae5"/>
  <rect x="44" y="315" width="45" height="6" rx="2" fill="#d1fae5"/>

  <!-- 品控端 x=246 w=210 -->
  <rect x="246" y="151" width="210" height="200" rx="8" fill="#fff7ed" stroke="#fed7aa" stroke-width="1.5"/>
  <text x="276" y="170" font-size="13">🛡</text>
  <text x="294" y="171" font-size="13" font-weight="bold" fill="#c2410c">品控端</text>
  <line x1="246" y1="177" x2="456" y2="177" stroke="#fed7aa" stroke-width="1"/>
  <text x="254" y="192" font-size="9.5" fill="#374151">· 教学质量标准制定</text>
  <text x="254" y="206" font-size="9.5" fill="#374151">· 课堂质量监控</text>
  <text x="254" y="220" font-size="9.5" fill="#374151">· 教学效果评估</text>
  <text x="254" y="234" font-size="9.5" fill="#374151">· 优秀案例沉淀</text>
  <!-- mock UI -->
  <rect x="254" y="244" width="194" height="100" rx="4" fill="white" stroke="#fed7aa" stroke-width="1"/>
  <circle cx="351" cy="278" r="24" fill="none" stroke="#fb923c" stroke-width="3"/>
  <text x="351" y="283" font-size="14" font-weight="bold" fill="#c2410c" text-anchor="middle">85</text>
  <rect x="254" y="306" width="194" height="34" rx="3" fill="#fff7ed"/>
  <rect x="260" y="312" width="70" height="5" rx="2" fill="#fed7aa"/>
  <rect x="260" y="322" width="50" height="5" rx="2" fill="#ffedd5"/>

  <!-- 老师端 x=464 w=210 -->
  <rect x="464" y="151" width="210" height="200" rx="8" fill="#eff6ff" stroke="#93c5fd" stroke-width="1.5"/>
  <text x="494" y="170" font-size="13">👨‍🏫</text>
  <text x="516" y="171" font-size="13" font-weight="bold" fill="#1d4ed8">老师端</text>
  <line x1="464" y1="177" x2="674" y2="177" stroke="#93c5fd" stroke-width="1"/>
  <text x="472" y="192" font-size="9.5" fill="#374151">· 使用课件授课</text>
  <text x="472" y="206" font-size="9.5" fill="#374151">· 查看学生数据</text>
  <text x="472" y="220" font-size="9.5" fill="#374151">· 批改作业并打标签</text>
  <text x="472" y="234" font-size="9.5" fill="#374151">· AI 教学建议与改进</text>
  <!-- mock UI -->
  <rect x="472" y="244" width="194" height="100" rx="4" fill="white" stroke="#bfdbfe" stroke-width="1"/>
  <rect x="476" y="248" width="186" height="22" rx="3" fill="#eff6ff"/>
  <rect x="480" y="253" width="45" height="5" rx="2" fill="#93c5fd"/>
  <rect x="480" y="262" width="65" height="5" rx="2" fill="#dbeafe"/>
  <rect x="476" y="274" width="90" height="65" rx="3" fill="#f8fafc" stroke="#e2e8f0" stroke-width="0.5"/>
  <rect x="570" y="274" width="90" height="65" rx="3" fill="#f8fafc" stroke="#e2e8f0" stroke-width="0.5"/>

  <!-- 助教端 x=682 w=210 -->
  <rect x="682" y="151" width="210" height="200" rx="8" fill="#fdf4ff" stroke="#e879f9" stroke-width="1.5"/>
  <text x="712" y="170" font-size="13">🧑‍💼</text>
  <text x="734" y="171" font-size="13" font-weight="bold" fill="#7e22ce">助教端</text>
  <line x1="682" y1="177" x2="892" y2="177" stroke="#e879f9" stroke-width="1"/>
  <text x="690" y="192" font-size="9.5" fill="#374151">· 作业提交完成度监控</text>
  <text x="690" y="206" font-size="9.5" fill="#374151">· AI 自动判分</text>
  <text x="690" y="220" font-size="9.5" fill="#374151">· 学生优化建议</text>
  <text x="690" y="234" font-size="9.5" fill="#374151">· 学生预警与跟进</text>
  <!-- mock UI -->
  <rect x="690" y="244" width="194" height="100" rx="4" fill="white" stroke="#f0abfc" stroke-width="1"/>
  <rect x="694" y="250" width="186" height="16" rx="3" fill="#fdf4ff"/>
  <rect x="694" y="270" width="186" height="16" rx="3" fill="#fdf4ff"/>
  <rect x="694" y="290" width="186" height="16" rx="3" fill="#fff0f3"/>
  <rect x="694" y="310" width="186" height="16" rx="3" fill="#fdf4ff"/>
  <text x="698" y="262" font-size="9" fill="#7e22ce">张同学 · 作业完成 ✓</text>
  <text x="698" y="282" font-size="9" fill="#7e22ce">王同学 · 正确率 72%</text>
  <text x="698" y="302" font-size="9" fill="#dc2626">李同学 · 未提交 ⚠</text>
  <text x="698" y="322" font-size="9" fill="#7e22ce">陈同学 · 需加强代数</text>

  <!-- 班主任端 x=900 w=210 - 新增 -->
  <rect x="900" y="151" width="210" height="200" rx="8" fill="#fefce8" stroke="#fde047" stroke-width="2"/>
  <!-- 角标 NEW -->
  <rect x="1080" y="151" width="30" height="18" rx="3" fill="#eab308"/>
  <text x="1095" y="163" font-size="9" font-weight="bold" fill="white" text-anchor="middle">NEW</text>
  <text x="930" y="170" font-size="13">🎓</text>
  <text x="950" y="171" font-size="13" font-weight="bold" fill="#854d0e">班主任端</text>
  <line x1="900" y1="177" x2="1110" y2="177" stroke="#fde047" stroke-width="1"/>
  <text x="908" y="192" font-size="9.5" fill="#374151">· 智能驾驶舱</text>
  <text x="908" y="206" font-size="9.5" fill="#374151">· AI 生成学生总结</text>
  <text x="908" y="220" font-size="9.5" fill="#374151">· AI 续费规划</text>
  <text x="908" y="234" font-size="9.5" fill="#374151">· 班级整体进度追踪</text>
  <!-- mock UI - 驾驶舱风格 -->
  <rect x="908" y="244" width="194" height="100" rx="4" fill="#1e1b4b" stroke="#fde047" stroke-width="1"/>
  <!-- 仪表盘 -->
  <circle cx="960" cy="285" r="28" fill="none" stroke="#fde047" stroke-width="2"/>
  <circle cx="960" cy="285" r="20" fill="none" stroke="#fbbf24" stroke-width="1" stroke-dasharray="3,2"/>
  <text x="960" y="281" font-size="8" fill="#fde047" text-anchor="middle">续费风险</text>
  <text x="960" y="293" font-size="11" font-weight="bold" fill="#ef4444" text-anchor="middle">3人</text>
  <!-- 右侧数据 -->
  <text x="996" y="260" font-size="8" fill="#a5b4fc">班级完成率</text>
  <rect x="996" y="264" width="100" height="6" rx="2" fill="#334155"/>
  <rect x="996" y="264" width="78" height="6" rx="2" fill="#22d3ee"/>
  <text x="1098" y="270" font-size="8" fill="#22d3ee">78%</text>
  <text x="996" y="278" font-size="8" fill="#a5b4fc">AI总结生成</text>
  <rect x="996" y="282" width="80" height="14" rx="3" fill="#1a56db"/>
  <text x="1036" y="292" font-size="8" fill="white" text-anchor="middle">一键生成</text>
  <text x="996" y="308" font-size="8" fill="#a5b4fc">续费预测</text>
  <rect x="996" y="312" width="80" height="14" rx="3" fill="#059669"/>
  <text x="1036" y="322" font-size="8" fill="white" text-anchor="middle">查看方案</text>

  <!-- 学生端 x=1118 w=210 -->
  <rect x="1118" y="151" width="210" height="200" rx="8" fill="#f0fdfa" stroke="#5eead4" stroke-width="1.5"/>
  <text x="1148" y="170" font-size="13">🧑‍🎓</text>
  <text x="1170" y="171" font-size="13" font-weight="bold" fill="#0f766e">学生端</text>
  <line x1="1118" y1="177" x2="1328" y2="177" stroke="#5eead4" stroke-width="1"/>
  <text x="1126" y="192" font-size="9.5" fill="#374151">· 学习、做题、测试</text>
  <text x="1126" y="206" font-size="9.5" fill="#374151">· 能力间隔与差距分析</text>
  <text x="1126" y="220" font-size="9.5" fill="#374151">· 个性化学习路径</text>
  <text x="1126" y="234" font-size="9.5" fill="#374151">· AI 答疑与练习推荐</text>
  <!-- mock UI - 六边形能力图 -->
  <rect x="1126" y="244" width="194" height="100" rx="4" fill="white" stroke="#99f6e4" stroke-width="1"/>
  <polygon points="1210,254 1232,265 1232,287 1210,298 1188,287 1188,265" fill="none" stroke="#5eead4" stroke-width="1.5"/>
  <polygon points="1210,260 1226,269 1226,281 1210,290 1194,281 1194,269" fill="#ccfbf1" stroke="#2dd4bf" stroke-width="1"/>
  <circle cx="1210" cy="276" r="3" fill="#0f766e"/>
  <rect x="1242" y="252" width="70" height="6" rx="2" fill="#99f6e4"/>
  <rect x="1242" y="262" width="55" height="6" rx="2" fill="#ccfbf1"/>
  <rect x="1242" y="272" width="65" height="6" rx="2" fill="#99f6e4"/>
  <rect x="1242" y="282" width="45" height="6" rx="2" fill="#ccfbf1"/>
  <rect x="1126" y="306" width="194" height="32" rx="3" fill="#f0fdfa"/>
  <rect x="1132" y="312" width="90" height="5" rx="2" fill="#5eead4"/>
  <rect x="1132" y="322" width="70" height="5" rx="2" fill="#99f6e4"/>

  <!-- 家长端 x=1336 w=210 -->
  <rect x="1336" y="151" width="210" height="200" rx="8" fill="#fef2f2" stroke="#fca5a5" stroke-width="1.5"/>
  <text x="1366" y="170" font-size="13">👨‍👩‍👧</text>
  <text x="1388" y="171" font-size="13" font-weight="bold" fill="#b91c1c">家长端</text>
  <line x1="1336" y1="177" x2="1546" y2="177" stroke="#fca5a5" stroke-width="1"/>
  <text x="1344" y="192" font-size="9.5" fill="#374151">· 查看学习进度与效果</text>
  <text x="1344" y="206" font-size="9.5" fill="#374151">· 获取 AI 生成报告</text>
  <text x="1344" y="220" font-size="9.5" fill="#374151">· 风险预警提醒</text>
  <text x="1344" y="234" font-size="9.5" fill="#374151">· 目标达成预测</text>
  <!-- mock UI -->
  <rect x="1344" y="244" width="194" height="100" rx="4" fill="white" stroke="#fecaca" stroke-width="1"/>
  <rect x="1348" y="248" width="186" height="32" rx="3" fill="#fef2f2"/>
  <text x="1354" y="260" font-size="9" fill="#b91c1c">本周学习报告</text>
  <text x="1354" y="273" font-size="8" fill="#64748b">完成率 85% · 正确率 78%</text>
  <rect x="1348" y="284" width="186" height="54" rx="3" fill="#fff5f5"/>
  <rect x="1354" y="290" width="110" height="5" rx="2" fill="#fca5a5"/>
  <rect x="1354" y="300" width="90" height="5" rx="2" fill="#fecaca"/>
  <rect x="1354" y="310" width="130" height="5" rx="2" fill="#fca5a5"/>
  <rect x="1354" y="320" width="70" height="5" rx="2" fill="#fecaca"/>

  <!-- 管理端 x=1554 w=226 -->
  <rect x="1554" y="151" width="226" height="200" rx="8" fill="#f8fafc" stroke="#cbd5e1" stroke-width="1.5"/>
  <text x="1584" y="170" font-size="13">📊</text>
  <text x="1604" y="171" font-size="13" font-weight="bold" fill="#475569">管理端</text>
  <line x1="1554" y1="177" x2="1780" y2="177" stroke="#cbd5e1" stroke-width="1"/>
  <text x="1562" y="192" font-size="9.5" fill="#374151">· 业务数据看板</text>
  <text x="1562" y="206" font-size="9.5" fill="#374151">· 运营健康度</text>
  <text x="1562" y="227" font-size="9.5" fill="#374151">· 教学效果分析</text>
  <text x="1562" y="241" font-size="9.5" fill="#374151">· 增长与财务分析</text>
  <!-- mock UI - 柱状图 -->
  <rect x="1562" y="248" width="210" height="96" rx="4" fill="white" stroke="#e2e8f0" stroke-width="1"/>
  <rect x="1572" y="286" width="16" height="50" rx="2" fill="#93c5fd"/>
  <rect x="1594" y="272" width="16" height="64" rx="2" fill="#1a56db"/>
  <rect x="1616" y="280" width="16" height="56" rx="2" fill="#93c5fd"/>
  <rect x="1638" y="265" width="16" height="71" rx="2" fill="#1a56db"/>
  <rect x="1660" y="275" width="16" height="61" rx="2" fill="#93c5fd"/>
  <rect x="1682" y="260" width="16" height="76" rx="2" fill="#1a56db"/>
  <line x1="1565" y1="336" x2="1768" y2="336" stroke="#e2e8f0" stroke-width="0.5"/>
  <rect x="1706" y="262" width="62" height="52" rx="3" fill="#f8fafc" stroke="#e2e8f0" stroke-width="0.5"/>
  <rect x="1710" y="267" width="54" height="7" rx="2" fill="#dbeafe"/>
  <rect x="1710" y="278" width="42" height="7" rx="2" fill="#bfdbfe"/>
  <rect x="1710" y="289" width="50" height="7" rx="2" fill="#dbeafe"/>
  <rect x="1710" y="300" width="36" height="7" rx="2" fill="#bfdbfe"/>

  <!-- 应用层到智能层的箭头 - 8个端 -->
  <line x1="133" y1="359" x2="133" y2="379" stroke="#1a56db" stroke-width="1.5" marker-end="url(#arrowBlue)"/>
  <line x1="351" y1="359" x2="351" y2="379" stroke="#1a56db" stroke-width="1.5" marker-end="url(#arrowBlue)"/>
  <line x1="569" y1="359" x2="569" y2="379" stroke="#1a56db" stroke-width="1.5" marker-end="url(#arrowBlue)"/>
  <line x1="787" y1="359" x2="787" y2="379" stroke="#1a56db" stroke-width="1.5" marker-end="url(#arrowBlue)"/>
  <line x1="1005" y1="359" x2="1005" y2="379" stroke="#eab308" stroke-width="2" marker-end="url(#arrowBlue)"/>
  <line x1="1223" y1="359" x2="1223" y2="379" stroke="#1a56db" stroke-width="1.5" marker-end="url(#arrowBlue)"/>
  <line x1="1441" y1="359" x2="1441" y2="379" stroke="#1a56db" stroke-width="1.5" marker-end="url(#arrowBlue)"/>
  <line x1="1667" y1="359" x2="1667" y2="379" stroke="#1a56db" stroke-width="1.5" marker-end="url(#arrowBlue)"/>

  <!-- ══════════════════════════════════════════
       智能层（AI 中枢）
  ══════════════════════════════════════════ -->
  <rect x="20" y="383" width="1760" height="205" rx="8" fill="white" stroke="#c7d2fe" stroke-width="1.5" filter="url(#shadow)"/>

  <!-- 智能层左侧标签 -->
  <rect x="24" y="387" width="90" height="197" rx="6" fill="#1e1b4b"/>
  <text x="69" y="450" font-size="13" font-weight="bold" fill="white" text-anchor="middle">智能层</text>
  <text x="69" y="468" font-size="11" fill="#a5b4fc" text-anchor="middle">（AI 中枢）</text>
  <line x1="35" y1="480" x2="103" y2="480" stroke="#4338ca" stroke-width="0.5"/>
  <text x="69" y="500" font-size="9" fill="#818cf8" text-anchor="middle">AI 驱动决策</text>
  <text x="69" y="514" font-size="9" fill="#818cf8" text-anchor="middle">让数据产生价值</text>

  <!-- 知识图谱 -->
  <rect x="122" y="391" width="320" height="191" rx="6" fill="#f8faff" stroke="#c7d2fe" stroke-width="1"/>
  <text x="282" y="408" font-size="11" font-weight="bold" fill="#4338ca" text-anchor="middle">知识图谱（Graph Layer）</text>
  <!-- 5个图谱节点 -->
  <circle cx="152" cy="450" r="13" fill="#dbeafe" stroke="#3b82f6" stroke-width="1.5"/>
  <circle cx="152" cy="450" r="5" fill="#3b82f6"/>
  <circle cx="140" cy="437" r="5" fill="#93c5fd"/>
  <circle cx="164" cy="437" r="5" fill="#93c5fd"/>
  <line x1="152" y1="438" x2="140" y2="442" stroke="#93c5fd" stroke-width="1"/>
  <line x1="152" y1="438" x2="164" y2="442" stroke="#93c5fd" stroke-width="1"/>
  <text x="152" y="472" font-size="8" fill="#1d4ed8" text-anchor="middle">题目图谱</text>
  <text x="152" y="481" font-size="7" fill="#64748b" text-anchor="middle">Question Graph</text>

  <circle cx="216" cy="450" r="13" fill="#d1fae5" stroke="#10b981" stroke-width="1.5"/>
  <circle cx="216" cy="450" r="5" fill="#10b981"/>
  <circle cx="204" cy="437" r="5" fill="#6ee7b7"/>
  <circle cx="228" cy="437" r="5" fill="#6ee7b7"/>
  <line x1="216" y1="438" x2="204" y2="442" stroke="#6ee7b7" stroke-width="1"/>
  <line x1="216" y1="438" x2="228" y2="442" stroke="#6ee7b7" stroke-width="1"/>
  <text x="216" y="472" font-size="8" fill="#065f46" text-anchor="middle">教学图谱</text>
  <text x="216" y="481" font-size="7" fill="#64748b" text-anchor="middle">Teaching Graph</text>

  <circle cx="280" cy="450" r="13" fill="#fce7f3" stroke="#ec4899" stroke-width="1.5"/>
  <circle cx="280" cy="450" r="5" fill="#ec4899"/>
  <circle cx="268" cy="440" r="4" fill="#f9a8d4"/>
  <circle cx="292" cy="440" r="4" fill="#f9a8d4"/>
  <line x1="275" y1="446" x2="272" y2="444" stroke="#f9a8d4" stroke-width="1"/>
  <line x1="285" y1="446" x2="288" y2="444" stroke="#f9a8d4" stroke-width="1"/>
  <text x="280" y="472" font-size="8" fill="#9d174d" text-anchor="middle">学生图谱</text>
  <text x="280" y="481" font-size="7" fill="#64748b" text-anchor="middle">Student Graph</text>

  <circle cx="344" cy="450" r="13" fill="#fef3c7" stroke="#f59e0b" stroke-width="1.5"/>
  <circle cx="344" cy="450" r="5" fill="#f59e0b"/>
  <circle cx="332" cy="440" r="4" fill="#fcd34d"/>
  <circle cx="356" cy="440" r="4" fill="#fcd34d"/>
  <text x="344" y="472" font-size="8" fill="#92400e" text-anchor="middle">成果图谱</text>
  <text x="344" y="481" font-size="7" fill="#64748b" text-anchor="middle">Outcome Graph</text>

  <circle cx="408" cy="450" r="13" fill="#f3e8ff" stroke="#a855f7" stroke-width="1.5"/>
  <circle cx="408" cy="450" r="5" fill="#a855f7"/>
  <circle cx="396" cy="440" r="4" fill="#d8b4fe"/>
  <circle cx="420" cy="440" r="4" fill="#d8b4fe"/>
  <text x="408" y="472" font-size="8" fill="#6b21a8" text-anchor="middle">家长图谱</text>
  <text x="408" y="481" font-size="7" fill="#64748b" text-anchor="middle">Parent Graph</text>

  <!-- 图谱间连线 -->
  <line x1="165" y1="450" x2="203" y2="450" stroke="#c7d2fe" stroke-width="1" stroke-dasharray="3,2"/>
  <line x1="229" y1="450" x2="267" y2="450" stroke="#c7d2fe" stroke-width="1" stroke-dasharray="3,2"/>
  <line x1="293" y1="450" x2="331" y2="450" stroke="#c7d2fe" stroke-width="1" stroke-dasharray="3,2"/>
  <line x1="357" y1="450" x2="395" y2="450" stroke="#c7d2fe" stroke-width="1" stroke-dasharray="3,2"/>

  <!-- 图谱到事件中心箭头 -->
  <line x1="442" y1="480" x2="468" y2="480" stroke="#4338ca" stroke-width="1.5" marker-end="url(#arrowBlue)"/>

  <!-- 学习事件中心 -->
  <rect x="450" y="391" width="270" height="191" rx="6" fill="#f0f9ff" stroke="#7dd3fc" stroke-width="1"/>
  <text x="585" y="408" font-size="11" font-weight="bold" fill="#0369a1" text-anchor="middle">学习事件中心（Learning Event Store）</text>
  <text x="585" y="422" font-size="9" fill="#64748b" text-anchor="middle">统一存储所有学习相关事件（Evidence）</text>
  <ellipse cx="530" cy="452" rx="24" ry="9" fill="#bae6fd" stroke="#0ea5e9" stroke-width="1.5"/>
  <rect x="506" y="452" width="48" height="30" fill="#e0f2fe" stroke="#0ea5e9" stroke-width="1"/>
  <ellipse cx="530" cy="482" rx="24" ry="9" fill="#bae6fd" stroke="#0ea5e9" stroke-width="1.5"/>
  <ellipse cx="530" cy="467" rx="24" ry="7" fill="none" stroke="#7dd3fc" stroke-width="0.8"/>
  <text x="565" y="440" font-size="9" fill="#374151">· 学习行为事件</text>
  <text x="565" y="454" font-size="9" fill="#374151">· 教学行为事件</text>
  <text x="565" y="468" font-size="9" fill="#374151">· 作业批改事件</text>
  <text x="565" y="482" font-size="9" fill="#374151">· 测试评估事件</text>
  <text x="565" y="496" font-size="9" fill="#374151">· 课堂互动事件</text>
  <text x="565" y="510" font-size="9" fill="#374151">· 家长关注事件</text>
  <text x="565" y="524" font-size="9" fill="#94a3b8">· ...</text>

  <!-- 事件中心到引擎箭头 -->
  <line x1="720" y1="480" x2="748" y2="480" stroke="#4338ca" stroke-width="1.5" marker-end="url(#arrowBlue)"/>

  <!-- 智能引擎 -->
  <rect x="730" y="391" width="560" height="191" rx="6" fill="#fafaf9" stroke="#d6d3d1" stroke-width="1"/>
  <text x="1010" y="408" font-size="11" font-weight="bold" fill="#44403c" text-anchor="middle">智能引擎（Engine Layer）</text>
  <!-- 6个引擎 2行3列 -->
  <rect x="740" y="416" width="168" height="72" rx="5" fill="white" stroke="#fbbf24" stroke-width="1.5"/>
  <text x="758" y="433" font-size="11">⚙️</text>
  <text x="774" y="434" font-size="10" font-weight="bold" fill="#92400e">决策引擎</text>
  <text x="774" y="446" font-size="8" fill="#64748b">Decision Engine</text>
  <text x="748" y="461" font-size="9" fill="#374151">数据洞察与决策支持</text>
  <text x="748" y="474" font-size="9" fill="#374151">个性化路径规划</text>

  <rect x="916" y="416" width="168" height="72" rx="5" fill="white" stroke="#34d399" stroke-width="1.5"/>
  <text x="934" y="433" font-size="11">🎯</text>
  <text x="950" y="434" font-size="10" font-weight="bold" fill="#065f46">推荐引擎</text>
  <text x="950" y="446" font-size="8" fill="#64748b">Recommendation Engine</text>
  <text x="924" y="461" font-size="9" fill="#374151">个性化推荐与路径规划</text>

  <rect x="1092" y="416" width="188" height="72" rx="5" fill="white" stroke="#f472b6" stroke-width="1.5"/>
  <text x="1110" y="433" font-size="11">✅</text>
  <text x="1126" y="434" font-size="10" font-weight="bold" fill="#9d174d">质量引擎</text>
  <text x="1126" y="446" font-size="8" fill="#64748b">Quality Engine</text>
  <text x="1100" y="461" font-size="9" fill="#374151">质量评估与预警</text>

  <rect x="740" y="498" width="168" height="72" rx="5" fill="white" stroke="#60a5fa" stroke-width="1.5"/>
  <text x="758" y="515" font-size="11">📚</text>
  <text x="774" y="516" font-size="10" font-weight="bold" fill="#1d4ed8">课程引擎</text>
  <text x="774" y="528" font-size="8" fill="#64748b">Curriculum Engine</text>
  <text x="748" y="543" font-size="9" fill="#374151">课程与内容优化</text>

  <rect x="916" y="498" width="168" height="72" rx="5" fill="white" stroke="#a78bfa" stroke-width="1.5"/>
  <text x="934" y="515" font-size="11">🏫</text>
  <text x="950" y="516" font-size="10" font-weight="bold" fill="#5b21b6">教学引擎</text>
  <text x="950" y="528" font-size="8" fill="#64748b">Teaching Engine</text>
  <text x="924" y="543" font-size="9" fill="#374151">教学策略分析与建议</text>

  <rect x="1092" y="498" width="188" height="72" rx="5" fill="white" stroke="#fb923c" stroke-width="1.5"/>
  <text x="1110" y="515" font-size="11">📈</text>
  <text x="1126" y="516" font-size="10" font-weight="bold" fill="#c2410c">成长引擎</text>
  <text x="1126" y="528" font-size="8" fill="#64748b">Growth Engine</text>
  <text x="1100" y="543" font-size="9" fill="#374151">成长预测与目标管理</text>

  <!-- AI 能力支撑 -->
  <rect x="1302" y="391" width="474" height="191" rx="6" fill="#1e1b4b" stroke="#4338ca" stroke-width="1.5"/>
  <text x="1539" y="408" font-size="11" font-weight="bold" fill="#c7d2fe" text-anchor="middle">AI 能力支撑</text>
  <text x="1312" y="430" font-size="9" fill="#a5b4fc">🔤 自然语言理解（NLP）</text>
  <text x="1312" y="448" font-size="9" fill="#a5b4fc">🎙 语音识别（ASR）</text>
  <text x="1312" y="466" font-size="9" fill="#a5b4fc">👁 计算机视觉（OCR/CV）</text>
  <text x="1312" y="484" font-size="9" fill="#a5b4fc">🧠 知识推理（KG Reasoning）</text>
  <text x="1312" y="502" font-size="9" fill="#a5b4fc">🤖 机器学习（ML/DL）</text>
  <text x="1312" y="520" font-size="9" fill="#a5b4fc">💡 大模型（LLM）</text>
  <circle cx="1700" cy="480" r="42" fill="#312e81" stroke="#4338ca" stroke-width="1.5"/>
  <text x="1700" y="488" font-size="34" text-anchor="middle">🧠</text>

  <!-- 智能层到数据层箭头 -->
  <line x1="282" y1="596" x2="282" y2="616" stroke="#64748b" stroke-width="1.5" marker-end="url(#arrowGray)"/>
  <line x1="585" y1="596" x2="585" y2="616" stroke="#64748b" stroke-width="1.5" marker-end="url(#arrowGray)"/>
  <line x1="820" y1="596" x2="820" y2="616" stroke="#64748b" stroke-width="1.5" marker-end="url(#arrowGray)"/>
  <line x1="1010" y1="596" x2="1010" y2="616" stroke="#64748b" stroke-width="1.5" marker-end="url(#arrowGray)"/>
  <line x1="1175" y1="596" x2="1175" y2="616" stroke="#64748b" stroke-width="1.5" marker-end="url(#arrowGray)"/>
  <line x1="1390" y1="596" x2="1390" y2="616" stroke="#64748b" stroke-width="1.5" marker-end="url(#arrowGray)"/>

  <!-- ══════════════════════════════════════════
       数据层（数据源）
  ══════════════════════════════════════════ -->
  <rect x="20" y="620" width="1760" height="175" rx="8" fill="white" stroke="#e2e8f0" stroke-width="1.5" filter="url(#shadow)"/>

  <!-- 数据层左侧标签 -->
  <rect x="24" y="624" width="90" height="167" rx="6" fill="#f1f5f9"/>
  <text x="69" y="682" font-size="13" font-weight="bold" fill="#334155" text-anchor="middle">数据层</text>
  <text x="69" y="698" font-size="11" fill="#64748b" text-anchor="middle">（数据源）</text>
  <line x1="35" y1="708" x2="103" y2="708" stroke="#cbd5e1" stroke-width="0.5"/>
  <text x="69" y="724" font-size="9" fill="#94a3b8" text-anchor="middle">多源数据采集</text>
  <text x="69" y="736" font-size="9" fill="#94a3b8" text-anchor="middle">统一标准化</text>

  <!-- 课程与内容数据 -->
  <rect x="122" y="628" width="230" height="163" rx="6" fill="#f0fdf4" stroke="#86efac" stroke-width="1"/>
  <text x="142" y="646" font-size="11">📖</text>
  <text x="158" y="647" font-size="10" font-weight="bold" fill="#15803d">课程与内容数据</text>
  <line x1="122" y1="652" x2="352" y2="652" stroke="#86efac" stroke-width="0.8"/>
  <text x="130" y="667" font-size="9" fill="#374151">· 课件、教材、讲义</text>
  <text x="130" y="681" font-size="9" fill="#374151">· 知识点体系</text>
  <text x="130" y="695" font-size="9" fill="#374151">· 课程大纲</text>
  <text x="130" y="709" font-size="9" fill="#374151">· 教学目标</text>

  <!-- 课堂数据 -->
  <rect x="360" y="628" width="220" height="163" rx="6" fill="#fff7ed" stroke="#fed7aa" stroke-width="1"/>
  <text x="380" y="646" font-size="11">🎙</text>
  <text x="396" y="647" font-size="10" font-weight="bold" fill="#c2410c">课堂数据</text>
  <line x1="360" y1="652" x2="580" y2="652" stroke="#fed7aa" stroke-width="0.8"/>
  <text x="368" y="667" font-size="9" fill="#374151">· 课堂录音/视频</text>
  <text x="368" y="681" font-size="9" fill="#374151">· 互动问答记录</text>
  <text x="368" y="695" font-size="9" fill="#374151">· 板书/PPT 使用</text>
  <text x="368" y="709" font-size="9" fill="#374151">· 课堂反馈</text>

  <!-- 作业数据 -->
  <rect x="588" y="628" width="220" height="163" rx="6" fill="#eff6ff" stroke="#93c5fd" stroke-width="1"/>
  <text x="608" y="646" font-size="11">📝</text>
  <text x="624" y="647" font-size="10" font-weight="bold" fill="#1d4ed8">作业数据</text>
  <line x1="588" y1="652" x2="808" y2="652" stroke="#93c5fd" stroke-width="0.8"/>
  <text x="596" y="667" font-size="9" fill="#374151">· 作业提交记录</text>
  <text x="596" y="681" font-size="9" fill="#374151">· 作业批改记录</text>
  <text x="596" y="695" font-size="9" fill="#374151">· 概念标签/评语</text>
  <text x="596" y="709" font-size="9" fill="#374151">· 错题与订正</text>

  <!-- 测试数据 -->
  <rect x="816" y="628" width="220" height="163" rx="6" fill="#fdf4ff" stroke="#e879f9" stroke-width="1"/>
  <text x="836" y="646" font-size="11">📋</text>
  <text x="852" y="647" font-size="10" font-weight="bold" fill="#7e22ce">测试数据</text>
  <line x1="816" y1="652" x2="1036" y2="652" stroke="#e879f9" stroke-width="0.8"/>
  <text x="824" y="667" font-size="9" fill="#374151">· 测验/考试记录</text>
  <text x="824" y="681" font-size="9" fill="#374151">· 各题作答数据</text>
  <text x="824" y="695" font-size="9" fill="#374151">· 分数与排名</text>
  <text x="824" y="709" font-size="9" fill="#374151">· 能力分布</text>

  <!-- 学习行为数据 -->
  <rect x="1044" y="628" width="220" height="163" rx="6" fill="#f0fdfa" stroke="#5eead4" stroke-width="1"/>
  <text x="1064" y="646" font-size="11">💻</text>
  <text x="1080" y="647" font-size="10" font-weight="bold" fill="#0f766e">学习行为数据</text>
  <line x1="1044" y1="652" x2="1264" y2="652" stroke="#5eead4" stroke-width="0.8"/>
  <text x="1052" y="667" font-size="9" fill="#374151">· 学习时长</text>
  <text x="1052" y="681" font-size="9" fill="#374151">· 视频观看</text>
  <text x="1052" y="695" font-size="9" fill="#374151">· 题目练习</text>
  <text x="1052" y="709" font-size="9" fill="#374151">· 资源使用</text>

  <!-- 学生信息数据 -->
  <rect x="1272" y="628" width="220" height="163" rx="6" fill="#fef2f2" stroke="#fca5a5" stroke-width="1"/>
  <text x="1292" y="646" font-size="11">👤</text>
  <text x="1308" y="647" font-size="10" font-weight="bold" fill="#b91c1c">学生信息数据</text>
  <line x1="1272" y1="652" x2="1492" y2="652" stroke="#fca5a5" stroke-width="0.8"/>
  <text x="1280" y="667" font-size="9" fill="#374151">· 基础信息</text>
  <text x="1280" y="681" font-size="9" fill="#374151">· 学习历史</text>
  <text x="1280" y="695" font-size="9" fill="#374151">· 目标分数</text>
  <text x="1280" y="709" font-size="9" fill="#374151">· 偏好与特征</text>

  <!-- 家长互动数据 -->
  <rect x="1500" y="628" width="280" height="163" rx="6" fill="#f8fafc" stroke="#cbd5e1" stroke-width="1"/>
  <text x="1520" y="646" font-size="11">👨‍👩‍👧</text>
  <text x="1540" y="647" font-size="10" font-weight="bold" fill="#475569">家长互动数据</text>
  <line x1="1500" y1="652" x2="1780" y2="652" stroke="#cbd5e1" stroke-width="0.8"/>
  <text x="1508" y="667" font-size="9" fill="#374151">· 报告查看记录</text>
  <text x="1508" y="681" font-size="9" fill="#374151">· 沟通记录</text>
  <text x="1508" y="695" font-size="9" fill="#374151">· 反馈与评价</text>
  <text x="1508" y="709" font-size="9" fill="#374151">· 关注点</text>

  <!-- ══════════════════════════════════════════
       数据流 & 价值流 + 三大数据飞轮
  ══════════════════════════════════════════ -->
  <rect x="20" y="806" width="1760" height="180" rx="8" fill="white" stroke="#e2e8f0" stroke-width="1.5" filter="url(#shadow)"/>

  <!-- 数据流左侧标签 -->
  <rect x="24" y="810" width="90" height="172" rx="6" fill="#0f172a"/>
  <text x="69" y="862" font-size="12" font-weight="bold" fill="white" text-anchor="middle">数据流</text>
  <text x="69" y="878" font-size="11" fill="#94a3b8" text-anchor="middle">&amp; 价值流</text>
  <line x1="35" y1="890" x2="103" y2="890" stroke="#334155" stroke-width="0.5"/>
  <text x="69" y="908" font-size="8" fill="#64748b" text-anchor="middle">数据驱动决策</text>
  <text x="69" y="920" font-size="8" fill="#64748b" text-anchor="middle">决策驱动行动</text>

  <!-- 学习闭环流程 -->
  <text x="430" y="824" font-size="11" font-weight="bold" fill="#1e40af" text-anchor="middle">学习闭环流程（Learning Closed Loop）</text>

  <circle cx="135" cy="875" r="23" fill="#dbeafe" stroke="#3b82f6" stroke-width="2"/>
  <text x="135" y="872" font-size="14" text-anchor="middle">📖</text>
  <text x="135" y="886" font-size="8" fill="#1d4ed8" text-anchor="middle">学习</text>
  <text x="135" y="906" font-size="8" fill="#64748b" text-anchor="middle">听讲/预习</text>
  <line x1="158" y1="875" x2="178" y2="875" stroke="#3b82f6" stroke-width="1.5" marker-end="url(#arrowBlue)"/>

  <circle cx="200" cy="875" r="23" fill="#d1fae5" stroke="#10b981" stroke-width="2"/>
  <text x="200" y="872" font-size="14" text-anchor="middle">✏️</text>
  <text x="200" y="886" font-size="8" fill="#065f46" text-anchor="middle">练习</text>
  <text x="200" y="906" font-size="8" fill="#64748b" text-anchor="middle">做题/作业</text>
  <line x1="223" y1="875" x2="243" y2="875" stroke="#10b981" stroke-width="1.5" marker-end="url(#arrowGreen)"/>

  <circle cx="265" cy="875" r="23" fill="#fce7f3" stroke="#ec4899" stroke-width="2"/>
  <text x="265" y="872" font-size="14" text-anchor="middle">✅</text>
  <text x="265" y="886" font-size="8" fill="#9d174d" text-anchor="middle">批改</text>
  <text x="265" y="906" font-size="8" fill="#64748b" text-anchor="middle">打标签/评语</text>
  <line x1="288" y1="875" x2="308" y2="875" stroke="#ec4899" stroke-width="1.5" marker-end="url(#arrowGray)"/>

  <circle cx="330" cy="875" r="23" fill="#fef3c7" stroke="#f59e0b" stroke-width="2"/>
  <text x="330" y="872" font-size="14" text-anchor="middle">📊</text>
  <text x="330" y="886" font-size="8" fill="#92400e" text-anchor="middle">测试</text>
  <text x="330" y="906" font-size="8" fill="#64748b" text-anchor="middle">检测/评估</text>
  <line x1="353" y1="875" x2="373" y2="875" stroke="#f59e0b" stroke-width="1.5" marker-end="url(#arrowGray)"/>

  <circle cx="395" cy="875" r="23" fill="#f3e8ff" stroke="#a855f7" stroke-width="2"/>
  <text x="395" y="872" font-size="14" text-anchor="middle">🔍</text>
  <text x="395" y="886" font-size="8" fill="#6b21a8" text-anchor="middle">分析</text>
  <text x="395" y="906" font-size="8" fill="#64748b" text-anchor="middle">能力与差距</text>
  <line x1="418" y1="875" x2="438" y2="875" stroke="#a855f7" stroke-width="1.5" marker-end="url(#arrowGray)"/>

  <circle cx="460" cy="875" r="23" fill="#fff7ed" stroke="#f97316" stroke-width="2"/>
  <text x="460" y="872" font-size="14" text-anchor="middle">💡</text>
  <text x="460" y="886" font-size="8" fill="#c2410c" text-anchor="middle">建议</text>
  <text x="460" y="906" font-size="8" fill="#64748b" text-anchor="middle">路径与策略</text>
  <line x1="483" y1="875" x2="503" y2="875" stroke="#f97316" stroke-width="1.5" marker-end="url(#arrowGray)"/>

  <circle cx="525" cy="875" r="23" fill="#ecfdf5" stroke="#22c55e" stroke-width="2"/>
  <text x="525" y="872" font-size="14" text-anchor="middle">🎯</text>
  <text x="525" y="886" font-size="8" fill="#15803d" text-anchor="middle">行动</text>
  <text x="525" y="906" font-size="8" fill="#64748b" text-anchor="middle">改进/学习</text>
  <line x1="548" y1="875" x2="568" y2="875" stroke="#22c55e" stroke-width="1.5" marker-end="url(#arrowGray)"/>

  <circle cx="590" cy="875" r="23" fill="#fef2f2" stroke="#ef4444" stroke-width="2"/>
  <text x="590" y="872" font-size="14" text-anchor="middle">🏆</text>
  <text x="590" y="886" font-size="8" fill="#b91c1c" text-anchor="middle">结果</text>
  <text x="590" y="906" font-size="8" fill="#64748b" text-anchor="middle">进步/出分</text>

  <!-- 三大数据飞轮 -->
  <text x="1150" y="824" font-size="11" font-weight="bold" fill="#1e40af" text-anchor="middle">三大数据飞轮（Data Flywheel）</text>

  <!-- 学习飞轮 -->
  <circle cx="840" cy="888" r="52" fill="none" stroke="#3b82f6" stroke-width="1.5" stroke-dasharray="4,2"/>
  <circle cx="840" cy="888" r="30" fill="#dbeafe" stroke="#3b82f6" stroke-width="2"/>
  <text x="840" y="885" font-size="9" font-weight="bold" fill="#1d4ed8" text-anchor="middle">学习</text>
  <text x="840" y="897" font-size="9" font-weight="bold" fill="#1d4ed8" text-anchor="middle">数据轮</text>
  <text x="840" y="824" font-size="8" fill="#374151" text-anchor="middle">更多学生使用</text>
  <text x="776" y="888" font-size="8" fill="#374151" text-anchor="end">更多口碑与推介</text>
  <text x="840" y="954" font-size="8" fill="#374151" text-anchor="middle">更个性化学习建议</text>
  <text x="904" y="888" font-size="8" fill="#374151" text-anchor="start">更准的能力洞察</text>
  <path d="M840,836 A52,52 0 0,1 892,888" fill="none" stroke="#3b82f6" stroke-width="1.5" marker-end="url(#arrowBlue)"/>
  <path d="M892,888 A52,52 0 0,1 840,940" fill="none" stroke="#3b82f6" stroke-width="1.5" marker-end="url(#arrowBlue)"/>
  <path d="M840,940 A52,52 0 0,1 788,888" fill="none" stroke="#3b82f6" stroke-width="1.5" marker-end="url(#arrowBlue)"/>
  <path d="M788,888 A52,52 0 0,1 840,836" fill="none" stroke="#3b82f6" stroke-width="1.5" marker-end="url(#arrowBlue)"/>

  <!-- 教研飞轮 -->
  <circle cx="1090" cy="888" r="52" fill="none" stroke="#10b981" stroke-width="1.5" stroke-dasharray="4,2"/>
  <circle cx="1090" cy="888" r="30" fill="#d1fae5" stroke="#10b981" stroke-width="2"/>
  <text x="1090" y="885" font-size="9" font-weight="bold" fill="#065f46" text-anchor="middle">教研</text>
  <text x="1090" y="897" font-size="9" font-weight="bold" fill="#065f46" text-anchor="middle">优化轮</text>
  <text x="1090" y="824" font-size="8" fill="#374151" text-anchor="middle">更多程序&amp;教学数据</text>
  <text x="1026" y="888" font-size="8" fill="#374151" text-anchor="end">更多学生报名</text>
  <text x="1090" y="954" font-size="8" fill="#374151" text-anchor="middle">课程更有效</text>
  <text x="1154" y="888" font-size="8" fill="#374151" text-anchor="start">更优质课程题库迭代</text>
  <path d="M1090,836 A52,52 0 0,1 1142,888" fill="none" stroke="#10b981" stroke-width="1.5" marker-end="url(#arrowGreen)"/>
  <path d="M1142,888 A52,52 0 0,1 1090,940" fill="none" stroke="#10b981" stroke-width="1.5" marker-end="url(#arrowGreen)"/>
  <path d="M1090,940 A52,52 0 0,1 1038,888" fill="none" stroke="#10b981" stroke-width="1.5" marker-end="url(#arrowGreen)"/>
  <path d="M1038,888 A52,52 0 0,1 1090,836" fill="none" stroke="#10b981" stroke-width="1.5" marker-end="url(#arrowGreen)"/>

  <!-- 教学飞轮 -->
  <circle cx="1340" cy="888" r="52" fill="none" stroke="#a855f7" stroke-width="1.5" stroke-dasharray="4,2"/>
  <circle cx="1340" cy="888" r="30" fill="#f3e8ff" stroke="#a855f7" stroke-width="2"/>
  <text x="1340" y="885" font-size="9" font-weight="bold" fill="#6b21a8" text-anchor="middle">教学</text>
  <text x="1340" y="897" font-size="9" font-weight="bold" fill="#6b21a8" text-anchor="middle">题量飞轮</text>
  <text x="1340" y="824" font-size="8" fill="#374151" text-anchor="middle">更多课堂数据</text>
  <text x="1276" y="888" font-size="8" fill="#374151" text-anchor="end">品牌口碑提升</text>
  <text x="1340" y="954" font-size="8" fill="#374151" text-anchor="middle">标准化与提效</text>
  <text x="1404" y="888" font-size="8" fill="#374151" text-anchor="start">教学行为更可视化</text>
  <path d="M1340,836 A52,52 0 0,1 1392,888" fill="none" stroke="#a855f7" stroke-width="1.5" marker-end="url(#arrowGray)"/>
  <path d="M1392,888 A52,52 0 0,1 1340,940" fill="none" stroke="#a855f7" stroke-width="1.5" marker-end="url(#arrowGray)"/>
  <path d="M1340,940 A52,52 0 0,1 1288,888" fill="none" stroke="#a855f7" stroke-width="1.5" marker-end="url(#arrowGray)"/>
  <path d="M1288,888 A52,52 0 0,1 1340,836" fill="none" stroke="#a855f7" stroke-width="1.5" marker-end="url(#arrowGray)"/>

  <!-- ══════════════════════════════════════════
       基础支撑层（技术 & 安全）
  ══════════════════════════════════════════ -->
  <rect x="20" y="996" width="1760" height="86" rx="8" fill="#0f172a" stroke="#1e293b" stroke-width="1" filter="url(#shadow)"/>
  <text x="69" y="1026" font-size="12" font-weight="bold" fill="white" text-anchor="middle">基础支撑层</text>
  <text x="69" y="1042" font-size="10" fill="#94a3b8" text-anchor="middle">（技术 &amp; 安全）</text>

  <text x="195" y="1020" font-size="11">☁️</text>
  <text x="212" y="1021" font-size="10" font-weight="bold" fill="#93c5fd">云计算基础设施</text>
  <text x="195" y="1038" font-size="9" fill="#64748b">弹性、稳定、高可用</text>

  <text x="430" y="1020" font-size="11">🗄</text>
  <text x="447" y="1021" font-size="10" font-weight="bold" fill="#93c5fd">数据中台</text>
  <text x="430" y="1038" font-size="9" fill="#64748b">数据治理、标准化</text>

  <text x="640" y="1020" font-size="11">🔒</text>
  <text x="657" y="1021" font-size="10" font-weight="bold" fill="#93c5fd">安全与隐私保护</text>
  <text x="640" y="1038" font-size="9" fill="#64748b">加密、权限隔离、合规</text>

  <text x="870" y="1020" font-size="11">🔌</text>
  <text x="887" y="1021" font-size="10" font-weight="bold" fill="#93c5fd">API 开放平台</text>
  <text x="870" y="1038" font-size="9" fill="#64748b">系统集成与扩展</text>

  <text x="1080" y="1020" font-size="11">📡</text>
  <text x="1097" y="1021" font-size="10" font-weight="bold" fill="#93c5fd">监控与运维</text>
  <text x="1080" y="1038" font-size="9" fill="#64748b">稳定性与性能保障</text>

  <text x="1290" y="1014" font-size="10" font-weight="bold" fill="#a5b4fc">合规与安全保障</text>
  <text x="1290" y="1028" font-size="9" fill="#64748b">✓ 数据加密存储与传输</text>
  <text x="1290" y="1042" font-size="9" fill="#64748b">✓ 产品功能管理与审计</text>
  <text x="1290" y="1056" font-size="9" fill="#64748b">✓ 数据备份与容灾恢复</text>

  <text x="1540" y="1028" font-size="9" fill="#64748b">隐私保护与合规通信</text>
  <text x="1540" y="1042" font-size="9" fill="#64748b">数据备份与容灾恢复</text>

</svg>
