<?xml version="1.0" encoding="UTF-8"?>
<svg xmlns="http://www.w3.org/2000/svg" viewBox="0 0 1600 1080" width="1600" height="1080" font-family="'Noto Sans CJK SC', 'PingFang SC', 'Microsoft YaHei', sans-serif">
  <defs>
    <linearGradient id="headerGrad" x1="0%" y1="0%" x2="100%" y2="0%">
      <stop offset="0%" style="stop-color:#1a56db;stop-opacity:1"/>
      <stop offset="100%" style="stop-color:#06b6d4;stop-opacity:1"/>
    </linearGradient>
    <linearGradient id="bgGrad" x1="0%" y1="0%" x2="0%" y2="100%">
      <stop offset="0%" style="stop-color:#f0f7ff;stop-opacity:1"/>
      <stop offset="100%" style="stop-color:#e8f4fd;stop-opacity:1"/>
    </linearGradient>
    <filter id="shadow" x="-5%" y="-5%" width="110%" height="110%">
      <feDropShadow dx="0" dy="2" stdDeviation="3" flood-color="#00000020"/>
    </filter>
    <marker id="arrowBlue" markerWidth="8" markerHeight="8" refX="6" refY="3" orient="auto">
      <path d="M0,0 L0,6 L8,3 z" fill="#1a56db"/>
    </marker>
    <marker id="arrowGray" markerWidth="8" markerHeight="8" refX="6" refY="3" orient="auto">
      <path d="M0,0 L0,6 L8,3 z" fill="#64748b"/>
    </marker>
    <marker id="arrowGreen" markerWidth="8" markerHeight="8" refX="6" refY="3" orient="auto">
      <path d="M0,0 L0,6 L8,3 z" fill="#059669"/>
    </marker>
  </defs>

  <!-- 背景 -->
  <rect width="1600" height="1080" fill="url(#bgGrad)"/>

  <!-- ══════════════════════════════════════════
       顶部标题区
  ══════════════════════════════════════════ -->
  <!-- Logo 区域 -->
  <rect x="580" y="12" width="440" height="60" rx="8" fill="none"/>
  <!-- X-NEW Logo 简化 -->
  <text x="660" y="42" font-size="28" font-weight="bold" fill="#1a56db">✕</text>
  <text x="685" y="42" font-size="22" font-weight="bold" fill="#1a56db">new</text>
  <text x="660" y="58" font-size="9" fill="#64748b">犀牛国际教育</text>
  <!-- 主标题 -->
  <text x="780" y="48" font-size="32" font-weight="bold" fill="#0f172a" text-anchor="middle">凌犀 AI LMS 架构</text>
  <text x="780" y="68" font-size="12" fill="#64748b" text-anchor="middle">AI 驱动教育全流程 · 数据驱动教学决策 · 帮孩子有效出分</text>

  <!-- ══════════════════════════════════════════
       整体目标栏
  ══════════════════════════════════════════ -->
  <rect x="20" y="82" width="1560" height="38" rx="6" fill="white" stroke="#e2e8f0" stroke-width="1" filter="url(#shadow)"/>
  <!-- 整体目标标签 -->
  <rect x="24" y="86" width="72" height="30" rx="5" fill="#1a56db"/>
  <text x="60" y="106" font-size="12" font-weight="bold" fill="white" text-anchor="middle">整体目标</text>
  <!-- 目标项 -->
  <text x="115" y="103" font-size="11" fill="#dc2626">🎯</text>
  <text x="130" y="104" font-size="11" fill="#374151">帮孩子有效出分</text>
  <text x="245" y="103" font-size="11" fill="#2563eb">📋</text>
  <text x="260" y="104" font-size="11" fill="#374151">过程留痕</text>
  <text x="345" y="103" font-size="11" fill="#059669">📈</text>
  <text x="360" y="104" font-size="11" fill="#374151">进度外化</text>
  <text x="445" y="103" font-size="11" fill="#7c3aed">📊</text>
  <text x="460" y="104" font-size="11" fill="#374151">差距外化</text>
  <text x="555" y="103" font-size="11" fill="#0891b2">⏱</text>
  <text x="570" y="104" font-size="11" fill="#374151">进度可控</text>
  <text x="660" y="103" font-size="11" fill="#b45309">🗄</text>
  <text x="675" y="104" font-size="11" fill="#374151">数据积累</text>
  <text x="765" y="103" font-size="11" fill="#1a56db">🤖</text>
  <text x="780" y="104" font-size="11" fill="#374151">AI 驱动不断优化</text>

  <!-- ══════════════════════════════════════════
       应用层（角色与场景）
  ══════════════════════════════════════════ -->
  <rect x="20" y="128" width="1560" height="230" rx="8" fill="white" stroke="#bfdbfe" stroke-width="1.5" filter="url(#shadow)"/>
  <!-- 应用层标题 -->
  <text x="780" y="148" font-size="14" font-weight="bold" fill="#1e40af" text-anchor="middle">应用层（角色与场景）</text>

  <!-- 教研端 -->
  <rect x="30" y="155" width="195" height="195" rx="8" fill="#f0fdf4" stroke="#86efac" stroke-width="1.5"/>
  <text x="65" y="175" font-size="13">🎓</text>
  <text x="85" y="176" font-size="13" font-weight="bold" fill="#15803d">教研端</text>
  <line x1="30" y1="182" x2="225" y2="182" stroke="#86efac" stroke-width="1"/>
  <text x="38" y="197" font-size="10" fill="#374151">· 课程与知识体系优化</text>
  <text x="38" y="212" font-size="10" fill="#374151">· 题库建设与迭代</text>
  <text x="38" y="227" font-size="10" fill="#374151">· 教学标准制定</text>
  <text x="38" y="242" font-size="10" fill="#374151">· 学习效果洞察</text>
  <!-- 教研端 mock UI -->
  <rect x="38" y="252" width="177" height="88" rx="4" fill="white" stroke="#d1fae5" stroke-width="1"/>
  <rect x="42" y="256" width="80" height="35" rx="3" fill="#dcfce7"/>
  <rect x="126" y="256" width="85" height="35" rx="3" fill="#f0fdf4" stroke="#86efac" stroke-width="0.5"/>
  <rect x="42" y="296" width="169" height="40" rx="3" fill="#f9fafb"/>
  <rect x="46" y="300" width="30" height="6" rx="2" fill="#86efac"/>
  <rect x="46" y="310" width="50" height="6" rx="2" fill="#d1fae5"/>
  <rect x="46" y="320" width="40" height="6" rx="2" fill="#d1fae5"/>

  <!-- 品控端 -->
  <rect x="233" y="155" width="195" height="195" rx="8" fill="#fff7ed" stroke="#fed7aa" stroke-width="1.5"/>
  <text x="268" y="175" font-size="13">🛡</text>
  <text x="288" y="176" font-size="13" font-weight="bold" fill="#c2410c">品控端</text>
  <line x1="233" y1="182" x2="428" y2="182" stroke="#fed7aa" stroke-width="1"/>
  <text x="241" y="197" font-size="10" fill="#374151">· 教学质量标准制定</text>
  <text x="241" y="212" font-size="10" fill="#374151">· 课堂质量监控</text>
  <text x="241" y="227" font-size="10" fill="#374151">· 教学效果评估</text>
  <text x="241" y="242" font-size="10" fill="#374151">· 优秀案例沉淀</text>
  <!-- 品控端 mock UI -->
  <rect x="241" y="252" width="177" height="88" rx="4" fill="white" stroke="#fed7aa" stroke-width="1"/>
  <circle cx="320" cy="285" r="22" fill="none" stroke="#fb923c" stroke-width="3"/>
  <text x="320" y="290" font-size="14" font-weight="bold" fill="#c2410c" text-anchor="middle">85</text>
  <rect x="241" y="310" width="177" height="26" rx="3" fill="#fff7ed"/>
  <rect x="248" y="315" width="60" height="5" rx="2" fill="#fed7aa"/>
  <rect x="248" y="323" width="45" height="5" rx="2" fill="#ffedd5"/>

  <!-- 老师端 -->
  <rect x="436" y="155" width="195" height="195" rx="8" fill="#eff6ff" stroke="#93c5fd" stroke-width="1.5"/>
  <text x="471" y="175" font-size="13">👨‍🏫</text>
  <text x="494" y="176" font-size="13" font-weight="bold" fill="#1d4ed8">老师端</text>
  <line x1="436" y1="182" x2="631" y2="182" stroke="#93c5fd" stroke-width="1"/>
  <text x="444" y="197" font-size="10" fill="#374151">· 使用课件授课</text>
  <text x="444" y="212" font-size="10" fill="#374151">· 查看学生数据</text>
  <text x="444" y="227" font-size="10" fill="#374151">· 批改作业并打标签</text>
  <text x="444" y="242" font-size="10" fill="#374151">· AI 教学建议与改进</text>
  <!-- 老师端 mock UI -->
  <rect x="444" y="252" width="177" height="88" rx="4" fill="white" stroke="#bfdbfe" stroke-width="1"/>
  <rect x="448" y="256" width="169" height="20" rx="3" fill="#eff6ff"/>
  <rect x="452" y="260" width="40" height="5" rx="2" fill="#93c5fd"/>
  <rect x="452" y="268" width="60" height="5" rx="2" fill="#dbeafe"/>
  <rect x="448" y="280" width="80" height="55" rx="3" fill="#f8fafc" stroke="#e2e8f0" stroke-width="0.5"/>
  <rect x="532" y="280" width="80" height="55" rx="3" fill="#f8fafc" stroke="#e2e8f0" stroke-width="0.5"/>

  <!-- 助教端 -->
  <rect x="639" y="155" width="195" height="195" rx="8" fill="#fdf4ff" stroke="#e879f9" stroke-width="1.5"/>
  <text x="674" y="175" font-size="13">🧑‍💼</text>
  <text x="697" y="176" font-size="13" font-weight="bold" fill="#7e22ce">助教端</text>
  <line x1="639" y1="182" x2="834" y2="182" stroke="#e879f9" stroke-width="1"/>
  <text x="647" y="197" font-size="10" fill="#374151">· 作业提交完成度监控</text>
  <text x="647" y="212" font-size="10" fill="#374151">· AI 自动判分</text>
  <text x="647" y="227" font-size="10" fill="#374151">· 学生优化建议</text>
  <text x="647" y="242" font-size="10" fill="#374151">· 学生预警与跟进</text>
  <!-- 助教端 mock UI -->
  <rect x="647" y="252" width="177" height="88" rx="4" fill="white" stroke="#f0abfc" stroke-width="1"/>
  <rect x="651" y="256" width="169" height="14" rx="3" fill="#fdf4ff"/>
  <rect x="651" y="274" width="169" height="14" rx="3" fill="#fdf4ff"/>
  <rect x="651" y="292" width="169" height="14" rx="3" fill="#fff0f3"/>
  <rect x="651" y="310" width="169" height="14" rx="3" fill="#fdf4ff"/>
  <text x="655" y="284" font-size="9" fill="#7e22ce">张同学 · 作业完成 ✓</text>
  <text x="655" y="302" font-size="9" fill="#dc2626">李同学 · 未提交 ⚠</text>
  <text x="655" y="320" font-size="9" fill="#7e22ce">王同学 · 正确率 72%</text>

  <!-- 学生端 -->
  <rect x="842" y="155" width="195" height="195" rx="8" fill="#f0fdfa" stroke="#5eead4" stroke-width="1.5"/>
  <text x="877" y="175" font-size="13">🧑‍🎓</text>
  <text x="900" y="176" font-size="13" font-weight="bold" fill="#0f766e">学生端</text>
  <line x1="842" y1="182" x2="1037" y2="182" stroke="#5eead4" stroke-width="1"/>
  <text x="850" y="197" font-size="10" fill="#374151">· 学习、做题、测试</text>
  <text x="850" y="212" font-size="10" fill="#374151">· 能力间隔与差距分析</text>
  <text x="850" y="227" font-size="10" fill="#374151">· 个性化学习路径</text>
  <text x="850" y="242" font-size="10" fill="#374151">· AI 答疑与练习推荐</text>
  <!-- 学生端 mock UI - 六边形能力图 -->
  <rect x="850" y="252" width="177" height="88" rx="4" fill="white" stroke="#99f6e4" stroke-width="1"/>
  <polygon points="939,262 960,272 960,292 939,302 918,292 918,272" fill="none" stroke="#5eead4" stroke-width="1.5"/>
  <polygon points="939,268 954,276 954,288 939,294 924,288 924,276" fill="#ccfbf1" stroke="#2dd4bf" stroke-width="1"/>
  <circle cx="939" cy="281" r="3" fill="#0f766e"/>
  <rect x="970" y="258" width="50" height="6" rx="2" fill="#99f6e4"/>
  <rect x="970" y="268" width="40" height="6" rx="2" fill="#ccfbf1"/>
  <rect x="970" y="278" width="55" height="6" rx="2" fill="#99f6e4"/>
  <rect x="970" y="288" width="35" height="6" rx="2" fill="#ccfbf1"/>
  <rect x="850" y="310" width="177" height="26" rx="3" fill="#f0fdfa"/>
  <rect x="856" y="316" width="80" height="5" rx="2" fill="#5eead4"/>
  <rect x="856" y="324" width="60" height="5" rx="2" fill="#99f6e4"/>

  <!-- 家长端 -->
  <rect x="1045" y="155" width="195" height="195" rx="8" fill="#fef2f2" stroke="#fca5a5" stroke-width="1.5"/>
  <text x="1080" y="175" font-size="13">👨‍👩‍👧</text>
  <text x="1103" y="176" font-size="13" font-weight="bold" fill="#b91c1c">家长端</text>
  <line x1="1045" y1="182" x2="1240" y2="182" stroke="#fca5a5" stroke-width="1"/>
  <text x="1053" y="197" font-size="10" fill="#374151">· 查看学习进度与效果</text>
  <text x="1053" y="212" font-size="10" fill="#374151">· 获取 AI 生成报告</text>
  <text x="1053" y="227" font-size="10" fill="#374151">· 风险预警提醒</text>
  <text x="1053" y="242" font-size="10" fill="#374151">· 目标达成预测</text>
  <!-- 家长端 mock UI -->
  <rect x="1053" y="252" width="177" height="88" rx="4" fill="white" stroke="#fecaca" stroke-width="1"/>
  <rect x="1057" y="256" width="169" height="30" rx="3" fill="#fef2f2"/>
  <text x="1063" y="268" font-size="9" fill="#b91c1c">本周学习报告</text>
  <text x="1063" y="280" font-size="8" fill="#64748b">完成率 85% · 正确率 78%</text>
  <rect x="1057" y="290" width="169" height="46" rx="3" fill="#fff5f5"/>
  <rect x="1063" y="296" width="100" height="5" rx="2" fill="#fca5a5"/>
  <rect x="1063" y="305" width="80" height="5" rx="2" fill="#fecaca"/>
  <rect x="1063" y="314" width="120" height="5" rx="2" fill="#fca5a5"/>
  <rect x="1063" y="323" width="60" height="5" rx="2" fill="#fecaca"/>

  <!-- 管理端 -->
  <rect x="1248" y="155" width="322" height="195" rx="8" fill="#f8fafc" stroke="#cbd5e1" stroke-width="1.5"/>
  <text x="1283" y="175" font-size="13">📊</text>
  <text x="1306" y="176" font-size="13" font-weight="bold" fill="#475569">管理端</text>
  <line x1="1248" y1="182" x2="1570" y2="182" stroke="#cbd5e1" stroke-width="1"/>
  <text x="1256" y="197" font-size="10" fill="#374151">· 业务数据看板</text>
  <text x="1256" y="212" font-size="10" fill="#374151">· 运营健康度</text>
  <text x="1256" y="227" font-size="10" fill="#374151">· 教学效果分析</text>
  <text x="1256" y="242" font-size="10" fill="#374151">· 增长与财务分析</text>
  <!-- 管理端 mock UI - 柱状图 -->
  <rect x="1256" y="252" width="306" height="88" rx="4" fill="white" stroke="#e2e8f0" stroke-width="1"/>
  <rect x="1268" y="290" width="18" height="44" rx="2" fill="#93c5fd"/>
  <rect x="1292" y="275" width="18" height="59" rx="2" fill="#1a56db"/>
  <rect x="1316" y="283" width="18" height="51" rx="2" fill="#93c5fd"/>
  <rect x="1340" y="268" width="18" height="66" rx="2" fill="#1a56db"/>
  <rect x="1364" y="278" width="18" height="56" rx="2" fill="#93c5fd"/>
  <rect x="1388" y="262" width="18" height="72" rx="2" fill="#1a56db"/>
  <line x1="1260" y1="334" x2="1555" y2="334" stroke="#e2e8f0" stroke-width="0.5"/>
  <rect x="1420" y="265" width="130" height="60" rx="3" fill="#f8fafc" stroke="#e2e8f0" stroke-width="0.5"/>
  <rect x="1426" y="271" width="118" height="8" rx="2" fill="#dbeafe"/>
  <rect x="1426" y="283" width="90" height="8" rx="2" fill="#bfdbfe"/>
  <rect x="1426" y="295" width="110" height="8" rx="2" fill="#dbeafe"/>
  <rect x="1426" y="307" width="80" height="8" rx="2" fill="#bfdbfe"/>

  <!-- 应用层到智能层的双向箭头 -->
  <line x1="127" y1="358" x2="127" y2="378" stroke="#1a56db" stroke-width="1.5" marker-end="url(#arrowBlue)"/>
  <line x1="330" y1="358" x2="330" y2="378" stroke="#1a56db" stroke-width="1.5" marker-end="url(#arrowBlue)"/>
  <line x1="533" y1="358" x2="533" y2="378" stroke="#1a56db" stroke-width="1.5" marker-end="url(#arrowBlue)"/>
  <line x1="736" y1="358" x2="736" y2="378" stroke="#1a56db" stroke-width="1.5" marker-end="url(#arrowBlue)"/>
  <line x1="939" y1="358" x2="939" y2="378" stroke="#1a56db" stroke-width="1.5" marker-end="url(#arrowBlue)"/>
  <line x1="1142" y1="358" x2="1142" y2="378" stroke="#1a56db" stroke-width="1.5" marker-end="url(#arrowBlue)"/>
  <line x1="1409" y1="358" x2="1409" y2="378" stroke="#1a56db" stroke-width="1.5" marker-end="url(#arrowBlue)"/>

  <!-- ══════════════════════════════════════════
       智能层（AI 中枢）
  ══════════════════════════════════════════ -->
  <rect x="20" y="382" width="1560" height="200" rx="8" fill="white" stroke="#c7d2fe" stroke-width="1.5" filter="url(#shadow)"/>

  <!-- 智能层左侧标签 -->
  <rect x="24" y="386" width="90" height="192" rx="6" fill="#1e1b4b"/>
  <text x="69" y="450" font-size="13" font-weight="bold" fill="white" text-anchor="middle">智能层</text>
  <text x="69" y="468" font-size="11" fill="#a5b4fc" text-anchor="middle">（AI 中枢）</text>
  <line x1="35" y1="480" x2="103" y2="480" stroke="#4338ca" stroke-width="0.5"/>
  <text x="69" y="500" font-size="9" fill="#818cf8" text-anchor="middle">AI 驱动决策</text>
  <text x="69" y="514" font-size="9" fill="#818cf8" text-anchor="middle">让数据产生价值</text>

  <!-- 知识图谱 Graph Layer -->
  <rect x="122" y="390" width="310" height="188" rx="6" fill="#f8faff" stroke="#c7d2fe" stroke-width="1"/>
  <text x="277" y="408" font-size="11" font-weight="bold" fill="#4338ca" text-anchor="middle">知识图谱（Graph Layer）</text>
  <!-- 5个图谱节点 -->
  <!-- 题目图谱 -->
  <circle cx="152" cy="445" r="12" fill="#dbeafe" stroke="#3b82f6" stroke-width="1.5"/>
  <circle cx="152" cy="445" r="5" fill="#3b82f6"/>
  <circle cx="140" cy="432" r="5" fill="#93c5fd"/>
  <circle cx="164" cy="432" r="5" fill="#93c5fd"/>
  <line x1="152" y1="433" x2="140" y2="437" stroke="#93c5fd" stroke-width="1"/>
  <line x1="152" y1="433" x2="164" y2="437" stroke="#93c5fd" stroke-width="1"/>
  <text x="152" y="465" font-size="8" fill="#1d4ed8" text-anchor="middle">题目图谱</text>
  <text x="152" y="474" font-size="7" fill="#64748b" text-anchor="middle">Question Graph</text>

  <!-- 教学图谱 -->
  <circle cx="210" cy="445" r="12" fill="#d1fae5" stroke="#10b981" stroke-width="1.5"/>
  <circle cx="210" cy="445" r="5" fill="#10b981"/>
  <circle cx="198" cy="432" r="5" fill="#6ee7b7"/>
  <circle cx="222" cy="432" r="5" fill="#6ee7b7"/>
  <circle cx="210" cy="458" r="4" fill="#6ee7b7"/>
  <line x1="210" y1="433" x2="198" y2="437" stroke="#6ee7b7" stroke-width="1"/>
  <line x1="210" y1="433" x2="222" y2="437" stroke="#6ee7b7" stroke-width="1"/>
  <text x="210" y="465" font-size="8" fill="#065f46" text-anchor="middle">教学图谱</text>
  <text x="210" y="474" font-size="7" fill="#64748b" text-anchor="middle">Teaching Graph</text>

  <!-- 学生图谱 -->
  <circle cx="268" cy="445" r="12" fill="#fce7f3" stroke="#ec4899" stroke-width="1.5"/>
  <circle cx="268" cy="445" r="5" fill="#ec4899"/>
  <circle cx="256" cy="435" r="4" fill="#f9a8d4"/>
  <circle cx="280" cy="435" r="4" fill="#f9a8d4"/>
  <circle cx="256" cy="455" r="4" fill="#f9a8d4"/>
  <circle cx="280" cy="455" r="4" fill="#f9a8d4"/>
  <line x1="263" y1="441" x2="260" y2="439" stroke="#f9a8d4" stroke-width="1"/>
  <line x1="273" y1="441" x2="276" y2="439" stroke="#f9a8d4" stroke-width="1"/>
  <text x="268" y="465" font-size="8" fill="#9d174d" text-anchor="middle">学生图谱</text>
  <text x="268" y="474" font-size="7" fill="#64748b" text-anchor="middle">Student Graph</text>

  <!-- 成果图谱 -->
  <circle cx="326" cy="445" r="12" fill="#fef3c7" stroke="#f59e0b" stroke-width="1.5"/>
  <circle cx="326" cy="445" r="5" fill="#f59e0b"/>
  <circle cx="314" cy="437" r="4" fill="#fcd34d"/>
  <circle cx="338" cy="437" r="4" fill="#fcd34d"/>
  <circle cx="326" cy="458" r="4" fill="#fcd34d"/>
  <line x1="321" y1="441" x2="318" y2="441" stroke="#fcd34d" stroke-width="1"/>
  <line x1="331" y1="441" x2="334" y2="441" stroke="#fcd34d" stroke-width="1"/>
  <text x="326" y="465" font-size="8" fill="#92400e" text-anchor="middle">成果图谱</text>
  <text x="326" y="474" font-size="7" fill="#64748b" text-anchor="middle">Outcome Graph</text>

  <!-- 家长图谱 -->
  <circle cx="384" cy="445" r="12" fill="#f3e8ff" stroke="#a855f7" stroke-width="1.5"/>
  <circle cx="384" cy="445" r="5" fill="#a855f7"/>
  <circle cx="372" cy="435" r="4" fill="#d8b4fe"/>
  <circle cx="396" cy="435" r="4" fill="#d8b4fe"/>
  <circle cx="378" cy="457" r="4" fill="#d8b4fe"/>
  <circle cx="390" cy="457" r="4" fill="#d8b4fe"/>
  <text x="384" y="465" font-size="8" fill="#6b21a8" text-anchor="middle">家长图谱</text>
  <text x="384" y="474" font-size="7" fill="#64748b" text-anchor="middle">Parent Graph</text>

  <!-- 图谱间连线 -->
  <line x1="164" y1="445" x2="198" y2="445" stroke="#c7d2fe" stroke-width="1" stroke-dasharray="3,2"/>
  <line x1="222" y1="445" x2="256" y2="445" stroke="#c7d2fe" stroke-width="1" stroke-dasharray="3,2"/>
  <line x1="280" y1="445" x2="314" y2="445" stroke="#c7d2fe" stroke-width="1" stroke-dasharray="3,2"/>
  <line x1="338" y1="445" x2="372" y2="445" stroke="#c7d2fe" stroke-width="1" stroke-dasharray="3,2"/>

  <!-- 图谱到事件中心的箭头 -->
  <line x1="432" y1="475" x2="460" y2="475" stroke="#4338ca" stroke-width="1.5" marker-end="url(#arrowBlue)"/>

  <!-- 学习事件中心 Learning Event Store -->
  <rect x="440" y="390" width="250" height="188" rx="6" fill="#f0f9ff" stroke="#7dd3fc" stroke-width="1"/>
  <text x="565" y="408" font-size="11" font-weight="bold" fill="#0369a1" text-anchor="middle">学习事件中心（Learning Event Store）</text>
  <text x="565" y="422" font-size="9" fill="#64748b" text-anchor="middle">统一存储所有学习相关事件（Evidence）</text>
  <!-- 数据库图标 -->
  <ellipse cx="520" cy="448" rx="22" ry="8" fill="#bae6fd" stroke="#0ea5e9" stroke-width="1.5"/>
  <rect x="498" y="448" width="44" height="28" fill="#e0f2fe" stroke="#0ea5e9" stroke-width="1"/>
  <ellipse cx="520" cy="476" rx="22" ry="8" fill="#bae6fd" stroke="#0ea5e9" stroke-width="1.5"/>
  <ellipse cx="520" cy="462" rx="22" ry="6" fill="none" stroke="#7dd3fc" stroke-width="0.8"/>
  <!-- 事件列表 -->
  <text x="555" y="438" font-size="9" fill="#374151">· 学习行为事件</text>
  <text x="555" y="451" font-size="9" fill="#374151">· 教学行为事件</text>
  <text x="555" y="464" font-size="9" fill="#374151">· 作业批改事件</text>
  <text x="555" y="477" font-size="9" fill="#374151">· 测试评估事件</text>
  <text x="555" y="490" font-size="9" fill="#374151">· 课堂互动事件</text>
  <text x="555" y="503" font-size="9" fill="#374151">· 家长关注事件</text>
  <text x="555" y="516" font-size="9" fill="#94a3b8">· ...</text>

  <!-- 事件中心到引擎的箭头 -->
  <line x1="690" y1="475" x2="718" y2="475" stroke="#4338ca" stroke-width="1.5" marker-end="url(#arrowBlue)"/>

  <!-- 智能引擎 Engine Layer -->
  <rect x="700" y="390" width="550" height="188" rx="6" fill="#fafaf9" stroke="#d6d3d1" stroke-width="1"/>
  <text x="975" y="408" font-size="11" font-weight="bold" fill="#44403c" text-anchor="middle">智能引擎（Engine Layer）</text>
  <!-- 6个引擎 2行3列 -->
  <!-- 决策引擎 -->
  <rect x="710" y="415" width="160" height="70" rx="5" fill="white" stroke="#fbbf24" stroke-width="1.5"/>
  <text x="730" y="432" font-size="11">⚙️</text>
  <text x="748" y="433" font-size="10" font-weight="bold" fill="#92400e">决策引擎</text>
  <text x="748" y="445" font-size="8" fill="#64748b">Decision Engine</text>
  <text x="718" y="460" font-size="9" fill="#374151">数据洞察与决策支持</text>
  <text x="718" y="473" font-size="9" fill="#374151">个性化路径规划</text>

  <!-- 推荐引擎 -->
  <rect x="880" y="415" width="160" height="70" rx="5" fill="white" stroke="#34d399" stroke-width="1.5"/>
  <text x="900" y="432" font-size="11">🎯</text>
  <text x="918" y="433" font-size="10" font-weight="bold" fill="#065f46">推荐引擎</text>
  <text x="918" y="445" font-size="8" fill="#64748b">Recommendation Engine</text>
  <text x="888" y="460" font-size="9" fill="#374151">个性化推荐与路径规划</text>

  <!-- 质量引擎 -->
  <rect x="1050" y="415" width="190" height="70" rx="5" fill="white" stroke="#f472b6" stroke-width="1.5"/>
  <text x="1070" y="432" font-size="11">✅</text>
  <text x="1088" y="433" font-size="10" font-weight="bold" fill="#9d174d">质量引擎</text>
  <text x="1088" y="445" font-size="8" fill="#64748b">Quality Engine</text>
  <text x="1058" y="460" font-size="9" fill="#374151">质量评估与预警</text>

  <!-- 课程引擎 -->
  <rect x="710" y="495" width="160" height="70" rx="5" fill="white" stroke="#60a5fa" stroke-width="1.5"/>
  <text x="730" y="512" font-size="11">📚</text>
  <text x="748" y="513" font-size="10" font-weight="bold" fill="#1d4ed8">课程引擎</text>
  <text x="748" y="525" font-size="8" fill="#64748b">Curriculum Engine</text>
  <text x="718" y="540" font-size="9" fill="#374151">课程与内容优化</text>

  <!-- 教学引擎 -->
  <rect x="880" y="495" width="160" height="70" rx="5" fill="white" stroke="#a78bfa" stroke-width="1.5"/>
  <text x="900" y="512" font-size="11">🏫</text>
  <text x="918" y="513" font-size="10" font-weight="bold" fill="#5b21b6">教学引擎</text>
  <text x="918" y="525" font-size="8" fill="#64748b">Teaching Engine</text>
  <text x="888" y="540" font-size="9" fill="#374151">教学策略分析与建议</text>

  <!-- 成长引擎 -->
  <rect x="1050" y="495" width="190" height="70" rx="5" fill="white" stroke="#fb923c" stroke-width="1.5"/>
  <text x="1070" y="512" font-size="11">📈</text>
  <text x="1088" y="513" font-size="10" font-weight="bold" fill="#c2410c">成长引擎</text>
  <text x="1088" y="525" font-size="8" fill="#64748b">Growth Engine</text>
  <text x="1058" y="540" font-size="9" fill="#374151">成长预测与目标管理</text>

  <!-- AI 能力支撑 -->
  <rect x="1262" y="390" width="314" height="188" rx="6" fill="#1e1b4b" stroke="#4338ca" stroke-width="1.5"/>
  <text x="1419" y="408" font-size="11" font-weight="bold" fill="#c7d2fe" text-anchor="middle">AI 能力支撑</text>
  <text x="1272" y="428" font-size="9" fill="#a5b4fc">🔤 自然语言理解（NLP）</text>
  <text x="1272" y="445" font-size="9" fill="#a5b4fc">🎙 语音识别（ASR）</text>
  <text x="1272" y="462" font-size="9" fill="#a5b4fc">👁 计算机视觉（OCR/CV）</text>
  <text x="1272" y="479" font-size="9" fill="#a5b4fc">🧠 知识推理（KG Reasoning）</text>
  <text x="1272" y="496" font-size="9" fill="#a5b4fc">🤖 机器学习（ML/DL）</text>
  <text x="1272" y="513" font-size="9" fill="#a5b4fc">💡 大模型（LLM）</text>
  <!-- 大脑图标 -->
  <circle cx="1530" cy="480" r="35" fill="#312e81" stroke="#4338ca" stroke-width="1.5"/>
  <text x="1530" y="487" font-size="28" text-anchor="middle">🧠</text>

  <!-- 智能层到数据层的双向箭头 -->
  <line x1="277" y1="582" x2="277" y2="602" stroke="#64748b" stroke-width="1.5" marker-end="url(#arrowGray)"/>
  <line x1="565" y1="582" x2="565" y2="602" stroke="#64748b" stroke-width="1.5" marker-end="url(#arrowGray)"/>
  <line x1="780" y1="582" x2="780" y2="602" stroke="#64748b" stroke-width="1.5" marker-end="url(#arrowGray)"/>
  <line x1="975" y1="582" x2="975" y2="602" stroke="#64748b" stroke-width="1.5" marker-end="url(#arrowGray)"/>
  <line x1="1142" y1="582" x2="1142" y2="602" stroke="#64748b" stroke-width="1.5" marker-end="url(#arrowGray)"/>
  <line x1="1350" y1="582" x2="1350" y2="602" stroke="#64748b" stroke-width="1.5" marker-end="url(#arrowGray)"/>

  <!-- ══════════════════════════════════════════
       数据层（数据源）
  ══════════════════════════════════════════ -->
  <rect x="20" y="606" width="1560" height="175" rx="8" fill="white" stroke="#e2e8f0" stroke-width="1.5" filter="url(#shadow)"/>

  <!-- 数据层左侧标签 -->
  <rect x="24" y="610" width="90" height="167" rx="6" fill="#f1f5f9"/>
  <text x="69" y="668" font-size="13" font-weight="bold" fill="#334155" text-anchor="middle">数据层</text>
  <text x="69" y="684" font-size="11" fill="#64748b" text-anchor="middle">（数据源）</text>
  <line x1="35" y1="695" x2="103" y2="695" stroke="#cbd5e1" stroke-width="0.5"/>
  <text x="69" y="712" font-size="9" fill="#94a3b8" text-anchor="middle">多源数据采集</text>
  <text x="69" y="724" font-size="9" fill="#94a3b8" text-anchor="middle">统一标准化</text>

  <!-- 课程与内容数据 -->
  <rect x="122" y="614" width="190" height="163" rx="6" fill="#f0fdf4" stroke="#86efac" stroke-width="1"/>
  <text x="142" y="632" font-size="11">📖</text>
  <text x="158" y="633" font-size="10" font-weight="bold" fill="#15803d">课程与内容数据</text>
  <line x1="122" y1="638" x2="312" y2="638" stroke="#86efac" stroke-width="0.8"/>
  <text x="130" y="653" font-size="9" fill="#374151">· 课件、教材、讲义</text>
  <text x="130" y="667" font-size="9" fill="#374151">· 知识点体系</text>
  <text x="130" y="681" font-size="9" fill="#374151">· 课程大纲</text>
  <text x="130" y="695" font-size="9" fill="#374151">· 教学目标</text>

  <!-- 课堂数据 -->
  <rect x="320" y="614" width="190" height="163" rx="6" fill="#fff7ed" stroke="#fed7aa" stroke-width="1"/>
  <text x="340" y="632" font-size="11">🎙</text>
  <text x="356" y="633" font-size="10" font-weight="bold" fill="#c2410c">课堂数据</text>
  <line x1="320" y1="638" x2="510" y2="638" stroke="#fed7aa" stroke-width="0.8"/>
  <text x="328" y="653" font-size="9" fill="#374151">· 课堂录音/视频</text>
  <text x="328" y="667" font-size="9" fill="#374151">· 互动问答记录</text>
  <text x="328" y="681" font-size="9" fill="#374151">· 板书/PPT 使用</text>
  <text x="328" y="695" font-size="9" fill="#374151">· 课堂反馈</text>

  <!-- 作业数据 -->
  <rect x="518" y="614" width="190" height="163" rx="6" fill="#eff6ff" stroke="#93c5fd" stroke-width="1"/>
  <text x="538" y="632" font-size="11">📝</text>
  <text x="554" y="633" font-size="10" font-weight="bold" fill="#1d4ed8">作业数据</text>
  <line x1="518" y1="638" x2="708" y2="638" stroke="#93c5fd" stroke-width="0.8"/>
  <text x="526" y="653" font-size="9" fill="#374151">· 作业提交记录</text>
  <text x="526" y="667" font-size="9" fill="#374151">· 作业批改记录</text>
  <text x="526" y="681" font-size="9" fill="#374151">· 概念标签/评语</text>
  <text x="526" y="695" font-size="9" fill="#374151">· 错题与订正</text>

  <!-- 测试数据 -->
  <rect x="716" y="614" width="190" height="163" rx="6" fill="#fdf4ff" stroke="#e879f9" stroke-width="1"/>
  <text x="736" y="632" font-size="11">📋</text>
  <text x="752" y="633" font-size="10" font-weight="bold" fill="#7e22ce">测试数据</text>
  <line x1="716" y1="638" x2="906" y2="638" stroke="#e879f9" stroke-width="0.8"/>
  <text x="724" y="653" font-size="9" fill="#374151">· 测验/考试记录</text>
  <text x="724" y="667" font-size="9" fill="#374151">· 各题作答数据</text>
  <text x="724" y="681" font-size="9" fill="#374151">· 分数与排名</text>
  <text x="724" y="695" font-size="9" fill="#374151">· 能力分布</text>

  <!-- 学习行为数据 -->
  <rect x="914" y="614" width="190" height="163" rx="6" fill="#f0fdfa" stroke="#5eead4" stroke-width="1"/>
  <text x="934" y="632" font-size="11">💻</text>
  <text x="950" y="633" font-size="10" font-weight="bold" fill="#0f766e">学习行为数据</text>
  <line x1="914" y1="638" x2="1104" y2="638" stroke="#5eead4" stroke-width="0.8"/>
  <text x="922" y="653" font-size="9" fill="#374151">· 学习时长</text>
  <text x="922" y="667" font-size="9" fill="#374151">· 视频观看</text>
  <text x="922" y="681" font-size="9" fill="#374151">· 题目练习</text>
  <text x="922" y="695" font-size="9" fill="#374151">· 资源使用</text>

  <!-- 学生信息数据 -->
  <rect x="1112" y="614" width="190" height="163" rx="6" fill="#fef2f2" stroke="#fca5a5" stroke-width="1"/>
  <text x="1132" y="632" font-size="11">👤</text>
  <text x="1148" y="633" font-size="10" font-weight="bold" fill="#b91c1c">学生信息数据</text>
  <line x1="1112" y1="638" x2="1302" y2="638" stroke="#fca5a5" stroke-width="0.8"/>
  <text x="1120" y="653" font-size="9" fill="#374151">· 基础信息</text>
  <text x="1120" y="667" font-size="9" fill="#374151">· 学习历史</text>
  <text x="1120" y="681" font-size="9" fill="#374151">· 目标分数</text>
  <text x="1120" y="695" font-size="9" fill="#374151">· 偏好与特征</text>

  <!-- 家长互动数据 -->
  <rect x="1310" y="614" width="266" height="163" rx="6" fill="#f8fafc" stroke="#cbd5e1" stroke-width="1"/>
  <text x="1330" y="632" font-size="11">👨‍👩‍👧</text>
  <text x="1350" y="633" font-size="10" font-weight="bold" fill="#475569">家长互动数据</text>
  <line x1="1310" y1="638" x2="1576" y2="638" stroke="#cbd5e1" stroke-width="0.8"/>
  <text x="1318" y="653" font-size="9" fill="#374151">· 报告查看记录</text>
  <text x="1318" y="667" font-size="9" fill="#374151">· 沟通记录</text>
  <text x="1318" y="681" font-size="9" fill="#374151">· 反馈与评价</text>
  <text x="1318" y="695" font-size="9" fill="#374151">· 关注点</text>

  <!-- ══════════════════════════════════════════
       数据流 & 价值流 + 三大数据飞轮
  ══════════════════════════════════════════ -->
  <rect x="20" y="790" width="1560" height="175" rx="8" fill="white" stroke="#e2e8f0" stroke-width="1.5" filter="url(#shadow)"/>

  <!-- 数据流左侧标签 -->
  <rect x="24" y="794" width="90" height="167" rx="6" fill="#0f172a"/>
  <text x="69" y="848" font-size="12" font-weight="bold" fill="white" text-anchor="middle">数据流</text>
  <text x="69" y="864" font-size="11" fill="#94a3b8" text-anchor="middle">&amp; 价值流</text>
  <line x1="35" y1="875" x2="103" y2="875" stroke="#334155" stroke-width="0.5"/>
  <text x="69" y="892" font-size="8" fill="#64748b" text-anchor="middle">数据驱动决策</text>
  <text x="69" y="904" font-size="8" fill="#64748b" text-anchor="middle">决策驱动行动</text>

  <!-- 学习闭环流程 -->
  <text x="420" y="808" font-size="11" font-weight="bold" fill="#1e40af" text-anchor="middle">学习闭环流程（Learning Closed Loop）</text>

  <!-- 8个步骤 -->
  <!-- 学习 -->
  <circle cx="130" cy="855" r="22" fill="#dbeafe" stroke="#3b82f6" stroke-width="2"/>
  <text x="130" y="852" font-size="14" text-anchor="middle">📖</text>
  <text x="130" y="866" font-size="8" fill="#1d4ed8" text-anchor="middle">学习</text>
  <text x="130" y="888" font-size="8" fill="#64748b" text-anchor="middle">听讲/预习</text>

  <line x1="152" y1="855" x2="172" y2="855" stroke="#3b82f6" stroke-width="1.5" marker-end="url(#arrowBlue)"/>

  <!-- 练习 -->
  <circle cx="194" cy="855" r="22" fill="#d1fae5" stroke="#10b981" stroke-width="2"/>
  <text x="194" y="852" font-size="14" text-anchor="middle">✏️</text>
  <text x="194" y="866" font-size="8" fill="#065f46" text-anchor="middle">练习</text>
  <text x="194" y="888" font-size="8" fill="#64748b" text-anchor="middle">做题/作业</text>

  <line x1="216" y1="855" x2="236" y2="855" stroke="#10b981" stroke-width="1.5" marker-end="url(#arrowGreen)"/>

  <!-- 批改 -->
  <circle cx="258" cy="855" r="22" fill="#fce7f3" stroke="#ec4899" stroke-width="2"/>
  <text x="258" y="852" font-size="14" text-anchor="middle">✅</text>
  <text x="258" y="866" font-size="8" fill="#9d174d" text-anchor="middle">批改</text>
  <text x="258" y="888" font-size="8" fill="#64748b" text-anchor="middle">打标签/评语</text>

  <line x1="280" y1="855" x2="300" y2="855" stroke="#ec4899" stroke-width="1.5" marker-end="url(#arrowGray)"/>

  <!-- 测试 -->
  <circle cx="322" cy="855" r="22" fill="#fef3c7" stroke="#f59e0b" stroke-width="2"/>
  <text x="322" y="852" font-size="14" text-anchor="middle">📊</text>
  <text x="322" y="866" font-size="8" fill="#92400e" text-anchor="middle">测试</text>
  <text x="322" y="888" font-size="8" fill="#64748b" text-anchor="middle">检测/评估</text>

  <line x1="344" y1="855" x2="364" y2="855" stroke="#f59e0b" stroke-width="1.5" marker-end="url(#arrowGray)"/>

  <!-- 分析 -->
  <circle cx="386" cy="855" r="22" fill="#f3e8ff" stroke="#a855f7" stroke-width="2"/>
  <text x="386" y="852" font-size="14" text-anchor="middle">🔍</text>
  <text x="386" y="866" font-size="8" fill="#6b21a8" text-anchor="middle">分析</text>
  <text x="386" y="888" font-size="8" fill="#64748b" text-anchor="middle">能力与差距</text>

  <line x1="408" y1="855" x2="428" y2="855" stroke="#a855f7" stroke-width="1.5" marker-end="url(#arrowGray)"/>

  <!-- 建议 -->
  <circle cx="450" cy="855" r="22" fill="#fff7ed" stroke="#f97316" stroke-width="2"/>
  <text x="450" y="852" font-size="14" text-anchor="middle">💡</text>
  <text x="450" y="866" font-size="8" fill="#c2410c" text-anchor="middle">建议</text>
  <text x="450" y="888" font-size="8" fill="#64748b" text-anchor="middle">路径与策略</text>

  <line x1="472" y1="855" x2="492" y2="855" stroke="#f97316" stroke-width="1.5" marker-end="url(#arrowGray)"/>

  <!-- 行动 -->
  <circle cx="514" cy="855" r="22" fill="#ecfdf5" stroke="#22c55e" stroke-width="2"/>
  <text x="514" y="852" font-size="14" text-anchor="middle">🎯</text>
  <text x="514" y="866" font-size="8" fill="#15803d" text-anchor="middle">行动</text>
  <text x="514" y="888" font-size="8" fill="#64748b" text-anchor="middle">改进/学习</text>

  <line x1="536" y1="855" x2="556" y2="855" stroke="#22c55e" stroke-width="1.5" marker-end="url(#arrowGray)"/>

  <!-- 结果 -->
  <circle cx="578" cy="855" r="22" fill="#fef2f2" stroke="#ef4444" stroke-width="2"/>
  <text x="578" y="852" font-size="14" text-anchor="middle">🏆</text>
  <text x="578" y="866" font-size="8" fill="#b91c1c" text-anchor="middle">结果</text>
  <text x="578" y="888" font-size="8" fill="#64748b" text-anchor="middle">进步/出分</text>

  <!-- 三大数据飞轮 -->
  <text x="1100" y="808" font-size="11" font-weight="bold" fill="#1e40af" text-anchor="middle">三大数据飞轮（Data Flywheel）</text>

  <!-- 学习飞轮 -->
  <circle cx="780" cy="870" r="50" fill="none" stroke="#3b82f6" stroke-width="1.5" stroke-dasharray="4,2"/>
  <circle cx="780" cy="870" r="28" fill="#dbeafe" stroke="#3b82f6" stroke-width="2"/>
  <text x="780" y="867" font-size="9" font-weight="bold" fill="#1d4ed8" text-anchor="middle">学习</text>
  <text x="780" y="878" font-size="9" font-weight="bold" fill="#1d4ed8" text-anchor="middle">数据轮</text>
  <!-- 飞轮文字 -->
  <text x="780" y="808" font-size="8" fill="#374151" text-anchor="middle">更多学生使用</text>
  <text x="720" y="870" font-size="8" fill="#374151" text-anchor="end">更多口碑与推介</text>
  <text x="780" y="935" font-size="8" fill="#374151" text-anchor="middle">更个性化学习建议</text>
  <text x="840" y="870" font-size="8" fill="#374151" text-anchor="start">更准的能力洞察</text>
  <!-- 飞轮箭头 -->
  <path d="M780,820 A50,50 0 0,1 830,870" fill="none" stroke="#3b82f6" stroke-width="1.5" marker-end="url(#arrowBlue)"/>
  <path d="M830,870 A50,50 0 0,1 780,920" fill="none" stroke="#3b82f6" stroke-width="1.5" marker-end="url(#arrowBlue)"/>
  <path d="M780,920 A50,50 0 0,1 730,870" fill="none" stroke="#3b82f6" stroke-width="1.5" marker-end="url(#arrowBlue)"/>
  <path d="M730,870 A50,50 0 0,1 780,820" fill="none" stroke="#3b82f6" stroke-width="1.5" marker-end="url(#arrowBlue)"/>

  <!-- 教研飞轮 -->
  <circle cx="1000" cy="870" r="50" fill="none" stroke="#10b981" stroke-width="1.5" stroke-dasharray="4,2"/>
  <circle cx="1000" cy="870" r="28" fill="#d1fae5" stroke="#10b981" stroke-width="2"/>
  <text x="1000" y="867" font-size="9" font-weight="bold" fill="#065f46" text-anchor="middle">教研</text>
  <text x="1000" y="878" font-size="9" font-weight="bold" fill="#065f46" text-anchor="middle">优化轮</text>
  <text x="1000" y="808" font-size="8" fill="#374151" text-anchor="middle">更多程序&amp;教学数据</text>
  <text x="940" y="870" font-size="8" fill="#374151" text-anchor="end">更多学生报名</text>
  <text x="1000" y="935" font-size="8" fill="#374151" text-anchor="middle">课程更有效</text>
  <text x="1060" y="870" font-size="8" fill="#374151" text-anchor="start">更优质课程题库迭代</text>
  <path d="M1000,820 A50,50 0 0,1 1050,870" fill="none" stroke="#10b981" stroke-width="1.5" marker-end="url(#arrowGreen)"/>
  <path d="M1050,870 A50,50 0 0,1 1000,920" fill="none" stroke="#10b981" stroke-width="1.5" marker-end="url(#arrowGreen)"/>
  <path d="M1000,920 A50,50 0 0,1 950,870" fill="none" stroke="#10b981" stroke-width="1.5" marker-end="url(#arrowGreen)"/>
  <path d="M950,870 A50,50 0 0,1 1000,820" fill="none" stroke="#10b981" stroke-width="1.5" marker-end="url(#arrowGreen)"/>

  <!-- 教学飞轮 -->
  <circle cx="1220" cy="870" r="50" fill="none" stroke="#a855f7" stroke-width="1.5" stroke-dasharray="4,2"/>
  <circle cx="1220" cy="870" r="28" fill="#f3e8ff" stroke="#a855f7" stroke-width="2"/>
  <text x="1220" y="867" font-size="9" font-weight="bold" fill="#6b21a8" text-anchor="middle">教学</text>
  <text x="1220" y="878" font-size="9" font-weight="bold" fill="#6b21a8" text-anchor="middle">题量飞轮</text>
  <text x="1220" y="808" font-size="8" fill="#374151" text-anchor="middle">更多课堂数据</text>
  <text x="1160" y="870" font-size="8" fill="#374151" text-anchor="end">品牌口碑提升</text>
  <text x="1220" y="935" font-size="8" fill="#374151" text-anchor="middle">标准化与提效</text>
  <text x="1280" y="870" font-size="8" fill="#374151" text-anchor="start">教学行为更可视化</text>
  <path d="M1220,820 A50,50 0 0,1 1270,870" fill="none" stroke="#a855f7" stroke-width="1.5" marker-end="url(#arrowGray)"/>
  <path d="M1270,870 A50,50 0 0,1 1220,920" fill="none" stroke="#a855f7" stroke-width="1.5" marker-end="url(#arrowGray)"/>
  <path d="M1220,920 A50,50 0 0,1 1170,870" fill="none" stroke="#a855f7" stroke-width="1.5" marker-end="url(#arrowGray)"/>
  <path d="M1170,870 A50,50 0 0,1 1220,820" fill="none" stroke="#a855f7" stroke-width="1.5" marker-end="url(#arrowGray)"/>

  <!-- ══════════════════════════════════════════
       基础支撑层（技术 & 安全）
  ══════════════════════════════════════════ -->
  <rect x="20" y="974" width="1560" height="88" rx="8" fill="#0f172a" stroke="#1e293b" stroke-width="1" filter="url(#shadow)"/>

  <!-- 基础支撑层标签 -->
  <text x="69" y="1005" font-size="12" font-weight="bold" fill="white" text-anchor="middle">基础支撑层</text>
  <text x="69" y="1020" font-size="10" fill="#94a3b8" text-anchor="middle">（技术 &amp; 安全）</text>

  <!-- 云计算 -->
  <text x="175" y="1000" font-size="11">☁️</text>
  <text x="192" y="1001" font-size="10" font-weight="bold" fill="#93c5fd">云计算基础设施</text>
  <text x="175" y="1018" font-size="9" fill="#64748b">弹性、稳定、高可用</text>

  <!-- 数据中台 -->
  <text x="380" y="1000" font-size="11">🗄</text>
  <text x="397" y="1001" font-size="10" font-weight="bold" fill="#93c5fd">数据中台</text>
  <text x="380" y="1018" font-size="9" fill="#64748b">数据治理、标准化</text>

  <!-- 安全与隐私 -->
  <text x="560" y="1000" font-size="11">🔒</text>
  <text x="577" y="1001" font-size="10" font-weight="bold" fill="#93c5fd">安全与隐私保护</text>
  <text x="560" y="1018" font-size="9" fill="#64748b">加密、权限隔、合规</text>

  <!-- API 开放平台 -->
  <text x="760" y="1000" font-size="11">🔌</text>
  <text x="777" y="1001" font-size="10" font-weight="bold" fill="#93c5fd">API 开放平台</text>
  <text x="760" y="1018" font-size="9" fill="#64748b">系统集成与扩展</text>

  <!-- 监控与运维 -->
  <text x="960" y="1000" font-size="11">📡</text>
  <text x="977" y="1001" font-size="10" font-weight="bold" fill="#93c5fd">监控与运维</text>
  <text x="960" y="1018" font-size="9" fill="#64748b">稳定性与性能保障</text>

  <!-- 合规与安全保障 -->
  <text x="1160" y="994" font-size="10" font-weight="bold" fill="#a5b4fc">合规与安全保障</text>
  <text x="1160" y="1008" font-size="9" fill="#64748b">✓ 数据加密存储与传输</text>
  <text x="1160" y="1020" font-size="9" fill="#64748b">✓ 产品功能管理与审计</text>
  <text x="1160" y="1032" font-size="9" fill="#64748b">✓ 数据备份与容灾恢复</text>

  <!-- 隐私保护 -->
  <text x="1370" y="1008" font-size="9" fill="#64748b">隐私保护与合规通信</text>
  <text x="1370" y="1020" font-size="9" fill="#64748b">数据备份与容灾恢复</text>

</svg>
