<?xml version="1.0" encoding="UTF-8"?>
<svg xmlns="http://www.w3.org/2000/svg" width="1600" height="2000" viewBox="0 0 1600 2000" font-family="'PingFang SC','Microsoft YaHei',sans-serif">

  <!-- Background -->
  <rect width="1600" height="2000" fill="#F0F2F5"/>

  <!-- ===== PAGE 1: LOGIN ===== -->
  <text x="40" y="38" font-size="13" fill="#94a3b8" font-weight="500">页面 1 / 登录页</text>

  <!-- Login Page Frame -->
  <rect x="40" y="50" width="1520" height="820" rx="12" fill="white" stroke="#e2e8f0" stroke-width="1.5"/>

  <!-- Left Panel: Brand -->
  <rect x="40" y="50" width="700" height="820" rx="12" fill="#1a56db"/>
  <rect x="40" y="50" width="700" height="820" rx="0" fill="url(#loginGrad)"/>
  <defs>
    <linearGradient id="loginGrad" x1="0" y1="0" x2="1" y2="1">
      <stop offset="0%" stop-color="#1e40af"/>
      <stop offset="100%" stop-color="#3b82f6"/>
    </linearGradient>
  </defs>
  <!-- Decorative circles -->
  <circle cx="200" cy="250" r="180" fill="white" fill-opacity="0.05"/>
  <circle cx="550" cy="650" r="220" fill="white" fill-opacity="0.05"/>
  <!-- Logo area -->
  <rect x="120" y="160" width="48" height="48" rx="10" fill="white" fill-opacity="0.2"/>
  <text x="144" y="192" font-size="22" fill="white" text-anchor="middle" font-weight="bold">犀</text>
  <text x="185" y="180" font-size="22" fill="white" font-weight="bold">凌犀 AI LMS</text>
  <text x="185" y="204" font-size="13" fill="white" fill-opacity="0.75">X-NEW 犀牛国际教育</text>
  <!-- Tagline -->
  <text x="120" y="320" font-size="28" fill="white" font-weight="bold">AI 驱动的教学管理</text>
  <text x="120" y="356" font-size="28" fill="white" font-weight="bold">让每一节课产生价值</text>
  <text x="120" y="400" font-size="14" fill="white" fill-opacity="0.75">学 · 练 · 测 · 析 全流程闭环</text>
  <!-- Feature pills -->
  <rect x="120" y="460" width="130" height="34" rx="17" fill="white" fill-opacity="0.15"/>
  <text x="185" y="482" font-size="12" fill="white" text-anchor="middle">📊 智能数据分析</text>
  <rect x="270" y="460" width="130" height="34" rx="17" fill="white" fill-opacity="0.15"/>
  <text x="335" y="482" font-size="12" fill="white" text-anchor="middle">🤖 AI 批改建议</text>
  <rect x="120" y="508" width="130" height="34" rx="17" fill="white" fill-opacity="0.15"/>
  <text x="185" y="530" font-size="12" fill="white" text-anchor="middle">📚 课件标准化</text>
  <rect x="270" y="508" width="130" height="34" rx="17" fill="white" fill-opacity="0.15"/>
  <text x="335" y="530" font-size="12" fill="white" text-anchor="middle">👨‍👩‍👧 多端协同</text>
  <!-- Illustration placeholder -->
  <rect x="100" y="580" width="500" height="220" rx="12" fill="white" fill-opacity="0.1"/>
  <text x="350" y="680" font-size="13" fill="white" fill-opacity="0.6" text-anchor="middle">[ 教学场景插图 ]</text>
  <text x="350" y="700" font-size="11" fill="white" fill-opacity="0.4" text-anchor="middle">老师 · 学生 · 数据看板</text>

  <!-- Right Panel: Login Form -->
  <rect x="740" y="50" width="820" height="820" rx="0" fill="white"/>
  <rect x="740" y="50" width="820" height="820" rx="12" fill="white"/>
  <!-- Form container -->
  <rect x="890" y="150" width="520" height="560" rx="16" fill="#f8fafc" stroke="#e2e8f0" stroke-width="1"/>
  <text x="1150" y="220" font-size="24" font-weight="bold" fill="#1e293b" text-anchor="middle">老师端登录</text>
  <text x="1150" y="248" font-size="13" fill="#64748b" text-anchor="middle">使用工号登录您的教学账号</text>

  <!-- Tab: 工号登录 / 手机登录 -->
  <rect x="940" y="268" width="420" height="40" rx="8" fill="#f1f5f9"/>
  <rect x="944" y="272" width="206" height="32" rx="6" fill="white" stroke="#e2e8f0" stroke-width="1"/>
  <text x="1047" y="293" font-size="13" fill="#1e293b" text-anchor="middle" font-weight="500">工号登录</text>
  <text x="1257" y="293" font-size="13" fill="#94a3b8" text-anchor="middle">手机验证码</text>

  <!-- Input: 工号 -->
  <text x="940" y="340" font-size="12" fill="#475569" font-weight="500">工号</text>
  <rect x="940" y="350" width="420" height="44" rx="8" fill="white" stroke="#cbd5e1" stroke-width="1.5"/>
  <text x="960" y="377" font-size="13" fill="#94a3b8">请输入工号</text>

  <!-- Input: 密码 -->
  <text x="940" y="420" font-size="12" fill="#475569" font-weight="500">密码</text>
  <rect x="940" y="430" width="420" height="44" rx="8" fill="white" stroke="#cbd5e1" stroke-width="1.5"/>
  <text x="960" y="457" font-size="13" fill="#94a3b8">请输入密码</text>
  <text x="1340" y="457" font-size="12" fill="#3b82f6" text-anchor="end">忘记密码？</text>

  <!-- Remember me -->
  <rect x="940" y="492" width="14" height="14" rx="3" fill="white" stroke="#cbd5e1" stroke-width="1.5"/>
  <text x="962" y="504" font-size="12" fill="#64748b">记住登录状态（7天）</text>

  <!-- Login Button -->
  <rect x="940" y="524" width="420" height="48" rx="10" fill="#1a56db"/>
  <text x="1150" y="553" font-size="15" fill="white" text-anchor="middle" font-weight="600">登 录</text>

  <!-- Divider -->
  <line x1="940" y1="596" x2="1100" y2="596" stroke="#e2e8f0" stroke-width="1"/>
  <text x="1150" y="600" font-size="12" fill="#94a3b8" text-anchor="middle">或</text>
  <line x1="1200" y1="596" x2="1360" y2="596" stroke="#e2e8f0" stroke-width="1"/>

  <!-- SSO -->
  <rect x="940" y="614" width="420" height="44" rx="10" fill="white" stroke="#e2e8f0" stroke-width="1.5"/>
  <text x="1150" y="641" font-size="13" fill="#475569" text-anchor="middle">🔐 企业 SSO 单点登录</text>

  <!-- Footer note -->
  <text x="1150" y="690" font-size="11" fill="#94a3b8" text-anchor="middle">登录即代表您同意《用户协议》和《隐私政策》</text>

  <!-- ===== PAGE 2: DASHBOARD ===== -->
  <text x="40" y="930" font-size="13" fill="#94a3b8" font-weight="500">页面 2 / 老师端首页（仪表盘）</text>

  <!-- Dashboard Frame -->
  <rect x="40" y="945" width="1520" height="1000" rx="12" fill="white" stroke="#e2e8f0" stroke-width="1.5"/>

  <!-- ── TOP NAV ── -->
  <rect x="40" y="945" width="1520" height="56" rx="12" fill="white" stroke="#e2e8f0" stroke-width="1"/>
  <rect x="40" y="973" width="1520" height="28" fill="white"/><!-- bottom square corners -->
  <!-- Logo -->
  <rect x="60" y="961" width="28" height="28" rx="6" fill="#1a56db"/>
  <text x="74" y="980" font-size="13" fill="white" text-anchor="middle" font-weight="bold">犀</text>
  <text x="100" y="978" font-size="14" fill="#1e293b" font-weight="bold">凌犀 LMS</text>
  <text x="170" y="978" font-size="11" fill="#94a3b8">老师端</text>

  <!-- Nav items -->
  <text x="320" y="978" font-size="13" fill="#1a56db" font-weight="600" text-anchor="middle">首页</text>
  <line x1="290" y1="999" x2="350" y2="999" stroke="#1a56db" stroke-width="2"/>
  <text x="450" y="978" font-size="13" fill="#64748b" text-anchor="middle">课件管理</text>
  <text x="580" y="978" font-size="13" fill="#64748b" text-anchor="middle">作业批改</text>
  <text x="710" y="978" font-size="13" fill="#64748b" text-anchor="middle">学生数据</text>
  <text x="840" y="978" font-size="13" fill="#64748b" text-anchor="middle">任务下发</text>
  <text x="970" y="978" font-size="13" fill="#64748b" text-anchor="middle">AI 建议</text>

  <!-- Right: avatar + bell -->
  <circle cx="1500" cy="973" r="16" fill="#e0e7ff"/>
  <text x="1500" y="978" font-size="12" fill="#3730a3" text-anchor="middle">王</text>
  <circle cx="1460" cy="965" r="8" fill="#f1f5f9"/>
  <text x="1460" y="969" font-size="10" fill="#64748b" text-anchor="middle">🔔</text>
  <circle cx="1466" cy="961" r="4" fill="#ef4444"/>

  <!-- ── WELCOME BANNER ── -->
  <rect x="60" y="1018" width="1480" height="88" rx="12" fill="linear-gradient(135deg,#1e40af,#3b82f6)"/>
  <defs>
    <linearGradient id="bannerGrad" x1="0" y1="0" x2="1" y2="0">
      <stop offset="0%" stop-color="#1e40af"/>
      <stop offset="100%" stop-color="#3b82f6"/>
    </linearGradient>
  </defs>
  <rect x="60" y="1018" width="1480" height="88" rx="12" fill="url(#bannerGrad)"/>
  <text x="90" y="1052" font-size="18" fill="white" font-weight="bold">早上好，王老师 👋</text>
  <text x="90" y="1076" font-size="13" fill="white" fill-opacity="0.85">今天是 2026年7月2日（周三）· 您有 3 份作业待批改 · AMC 8 基础班今日 19:00 上课</text>
  <!-- Quick action buttons -->
  <rect x="1140" y="1032" width="120" height="36" rx="8" fill="white" fill-opacity="0.2"/>
  <text x="1200" y="1055" font-size="12" fill="white" text-anchor="middle">📂 打开课件</text>
  <rect x="1280" y="1032" width="120" height="36" rx="8" fill="white" fill-opacity="0.2"/>
  <text x="1340" y="1055" font-size="12" fill="white" text-anchor="middle">✏️ 批改作业</text>
  <rect x="1420" y="1032" width="100" height="36" rx="8" fill="white" fill-opacity="0.2"/>
  <text x="1470" y="1055" font-size="12" fill="white" text-anchor="middle">📊 查看数据</text>

  <!-- ── STATS ROW ── -->
  <!-- Card 1 -->
  <rect x="60" y="1124" width="340" height="100" rx="12" fill="white" stroke="#e2e8f0" stroke-width="1"/>
  <rect x="60" y="1124" width="340" height="100" rx="12" fill="#eff6ff"/>
  <text x="88" y="1156" font-size="12" fill="#64748b">本周待批改作业</text>
  <text x="88" y="1192" font-size="32" fill="#1a56db" font-weight="bold">3</text>
  <text x="140" y="1192" font-size="13" fill="#64748b">份</text>
  <text x="360" y="1156" font-size="24" text-anchor="end">📝</text>
  <rect x="88" y="1200" width="60" height="18" rx="9" fill="#fef3c7"/>
  <text x="118" y="1213" font-size="10" fill="#d97706" text-anchor="middle">⚠ 待处理</text>

  <!-- Card 2 -->
  <rect x="420" y="1124" width="340" height="100" rx="12" fill="#f0fdf4"/>
  <text x="448" y="1156" font-size="12" fill="#64748b">今日上课班级</text>
  <text x="448" y="1192" font-size="32" fill="#16a34a" font-weight="bold">2</text>
  <text x="500" y="1192" font-size="13" fill="#64748b">个班</text>
  <text x="720" y="1156" font-size="24" text-anchor="end">🏫</text>
  <text x="448" y="1213" font-size="11" fill="#16a34a">19:00 AMC8基础 · 20:30 AMC10强化</text>

  <!-- Card 3 -->
  <rect x="780" y="1124" width="340" height="100" rx="12" fill="#fdf4ff"/>
  <text x="808" y="1156" font-size="12" fill="#64748b">本周平均作业完成率</text>
  <text x="808" y="1192" font-size="32" fill="#9333ea" font-weight="bold">76</text>
  <text x="876" y="1192" font-size="13" fill="#64748b">%</text>
  <text x="1080" y="1156" font-size="24" text-anchor="end">📈</text>
  <rect x="808" y="1200" width="72" height="18" rx="9" fill="#fce7f3"/>
  <text x="844" y="1213" font-size="10" fill="#be185d" text-anchor="middle">↓ 低于目标</text>

  <!-- Card 4 -->
  <rect x="1140" y="1124" width="400" height="100" rx="12" fill="#fff7ed"/>
  <text x="1168" y="1156" font-size="12" fill="#64748b">AI 教学建议</text>
  <text x="1168" y="1180" font-size="12" fill="#1e293b">📌 第3课"代数"正确率偏低(52%)</text>
  <text x="1168" y="1200" font-size="12" fill="#1e293b">建议加强练习，下发补充题目</text>
  <rect x="1168" y="1208" width="80" height="20" rx="10" fill="#f97316"/>
  <text x="1208" y="1222" font-size="11" fill="white" text-anchor="middle">查看建议 →</text>

  <!-- ── MY CLASSES ── -->
  <text x="60" y="1262" font-size="15" fill="#1e293b" font-weight="bold">我的班级</text>
  <text x="1540" y="1262" font-size="12" fill="#3b82f6" text-anchor="end">查看全部 →</text>

  <!-- Class Card 1: AMC8基础 -->
  <rect x="60" y="1276" width="460" height="160" rx="12" fill="white" stroke="#e2e8f0" stroke-width="1"/>
  <rect x="60" y="1276" width="460" height="8" rx="4" fill="#3b82f6"/>
  <text x="88" y="1312" font-size="14" fill="#1e293b" font-weight="bold">AMC 8 基础班</text>
  <rect x="380" y="1296" width="60" height="22" rx="11" fill="#dbeafe"/>
  <text x="410" y="1311" font-size="11" fill="#1d4ed8" text-anchor="middle">进行中</text>
  <text x="88" y="1334" font-size="12" fill="#64748b">18 名学生 · 共 12 节课 · 已完成 4 节</text>
  <!-- Progress bar -->
  <rect x="88" y="1348" width="400" height="6" rx="3" fill="#e2e8f0"/>
  <rect x="88" y="1348" width="133" height="6" rx="3" fill="#3b82f6"/>
  <text x="88" y="1372" font-size="11" fill="#64748b">课程进度 33%</text>
  <text x="488" y="1372" font-size="11" fill="#64748b" text-anchor="end">作业完成率 78%</text>
  <!-- Buttons -->
  <rect x="88" y="1384" width="100" height="32" rx="8" fill="#1a56db"/>
  <text x="138" y="1404" font-size="12" fill="white" text-anchor="middle">打开课件</text>
  <rect x="200" y="1384" width="100" height="32" rx="8" fill="white" stroke="#e2e8f0" stroke-width="1"/>
  <text x="250" y="1404" font-size="12" fill="#475569" text-anchor="middle">批改作业</text>
  <rect x="312" y="1384" width="100" height="32" rx="8" fill="white" stroke="#e2e8f0" stroke-width="1"/>
  <text x="362" y="1404" font-size="12" fill="#475569" text-anchor="middle">学生数据</text>

  <!-- Class Card 2: AMC8强化 -->
  <rect x="540" y="1276" width="460" height="160" rx="12" fill="white" stroke="#e2e8f0" stroke-width="1"/>
  <rect x="540" y="1276" width="460" height="8" rx="4" fill="#8b5cf6"/>
  <text x="568" y="1312" font-size="14" fill="#1e293b" font-weight="bold">AMC 8 强化班</text>
  <rect x="860" y="1296" width="60" height="22" rx="11" fill="#ede9fe"/>
  <text x="890" y="1311" font-size="11" fill="#6d28d9" text-anchor="middle">进行中</text>
  <text x="568" y="1334" font-size="12" fill="#64748b">22 名学生 · 共 12 节课 · 已完成 4 节</text>
  <rect x="568" y="1348" width="400" height="6" rx="3" fill="#e2e8f0"/>
  <rect x="568" y="1348" width="133" height="6" rx="3" fill="#8b5cf6"/>
  <text x="568" y="1372" font-size="11" fill="#64748b">课程进度 33%</text>
  <text x="968" y="1372" font-size="11" fill="#64748b" text-anchor="end">作业完成率 82%</text>
  <rect x="568" y="1384" width="100" height="32" rx="8" fill="#7c3aed"/>
  <text x="618" y="1404" font-size="12" fill="white" text-anchor="middle">打开课件</text>
  <rect x="680" y="1384" width="100" height="32" rx="8" fill="white" stroke="#e2e8f0" stroke-width="1"/>
  <text x="730" y="1404" font-size="12" fill="#475569" text-anchor="middle">批改作业</text>
  <rect x="792" y="1384" width="100" height="32" rx="8" fill="white" stroke="#e2e8f0" stroke-width="1"/>
  <text x="842" y="1404" font-size="12" fill="#475569" text-anchor="middle">学生数据</text>

  <!-- Class Card 3: AMC10冲刺 -->
  <rect x="1020" y="1276" width="520" height="160" rx="12" fill="white" stroke="#e2e8f0" stroke-width="1"/>
  <rect x="1020" y="1276" width="520" height="8" rx="4" fill="#f59e0b"/>
  <text x="1048" y="1312" font-size="14" fill="#1e293b" font-weight="bold">AMC 10 冲刺班</text>
  <rect x="1420" y="1296" width="60" height="22" rx="11" fill="#fef3c7"/>
  <text x="1450" y="1311" font-size="11" fill="#b45309" text-anchor="middle">即将开始</text>
  <text x="1048" y="1334" font-size="12" fill="#64748b">15 名学生 · 共 10 节课 · 开课日期 7月15日</text>
  <rect x="1048" y="1348" width="460" height="6" rx="3" fill="#e2e8f0"/>
  <rect x="1048" y="1348" width="0" height="6" rx="3" fill="#f59e0b"/>
  <text x="1048" y="1372" font-size="11" fill="#64748b">课程进度 0%</text>
  <text x="1508" y="1372" font-size="11" fill="#64748b" text-anchor="end">待开课</text>
  <rect x="1048" y="1384" width="110" height="32" rx="8" fill="#d97706"/>
  <text x="1103" y="1404" font-size="12" fill="white" text-anchor="middle">准备课件</text>
  <rect x="1170" y="1384" width="110" height="32" rx="8" fill="white" stroke="#e2e8f0" stroke-width="1"/>
  <text x="1225" y="1404" font-size="12" fill="#475569" text-anchor="middle">下发任务</text>

  <!-- ── PENDING TASKS ── -->
  <text x="60" y="1480" font-size="15" fill="#1e293b" font-weight="bold">待处理事项</text>

  <!-- Task list -->
  <!-- Task 1 -->
  <rect x="60" y="1494" width="960" height="56" rx="10" fill="white" stroke="#fee2e2" stroke-width="1"/>
  <rect x="60" y="1494" width="4" height="56" rx="2" fill="#ef4444"/>
  <text x="84" y="1518" font-size="13" fill="#1e293b" font-weight="500">AMC 8 基础班 · 第4课作业 待批改</text>
  <text x="84" y="1538" font-size="11" fill="#94a3b8">18 份提交 · 已批改 5 份 · 截止时间 今日 23:59</text>
  <rect x="880" y="1508" width="100" height="28" rx="8" fill="#ef4444"/>
  <text x="930" y="1526" font-size="12" fill="white" text-anchor="middle">立即批改</text>

  <!-- Task 2 -->
  <rect x="60" y="1562" width="960" height="56" rx="10" fill="white" stroke="#fef3c7" stroke-width="1"/>
  <rect x="60" y="1562" width="4" height="56" rx="2" fill="#f59e0b"/>
  <text x="84" y="1586" font-size="13" fill="#1e293b" font-weight="500">AMC 8 强化班 · 第4课作业 待批改</text>
  <text x="84" y="1606" font-size="11" fill="#94a3b8">22 份提交 · 已批改 12 份 · 截止时间 明日 23:59</text>
  <rect x="880" y="1576" width="100" height="28" rx="8" fill="#f59e0b"/>
  <text x="930" y="1594" font-size="12" fill="white" text-anchor="middle">继续批改</text>

  <!-- Task 3 -->
  <rect x="60" y="1630" width="960" height="56" rx="10" fill="white" stroke="#e2e8f0" stroke-width="1"/>
  <rect x="60" y="1630" width="4" height="56" rx="2" fill="#3b82f6"/>
  <text x="84" y="1654" font-size="13" fill="#1e293b" font-weight="500">AMC 10 冲刺班 · 第1节课件 待上传</text>
  <text x="84" y="1674" font-size="11" fill="#94a3b8">开课日期 7月15日 · 建议提前3天上传</text>
  <rect x="880" y="1644" width="100" height="28" rx="8" fill="white" stroke="#3b82f6" stroke-width="1"/>
  <text x="930" y="1662" font-size="12" fill="#3b82f6" text-anchor="middle">上传课件</text>

  <!-- ── AI SUGGESTIONS PANEL ── -->
  <rect x="1040" y="1494" width="500" height="192" rx="12" fill="#f8fafc" stroke="#e2e8f0" stroke-width="1"/>
  <text x="1064" y="1522" font-size="14" fill="#1e293b" font-weight="bold">🤖 AI 教学建议</text>
  <text x="1500" y="1522" font-size="11" fill="#3b82f6" text-anchor="end">查看全部</text>
  <!-- Suggestion items -->
  <rect x="1064" y="1534" width="452" height="52" rx="8" fill="white" stroke="#dbeafe" stroke-width="1"/>
  <text x="1084" y="1555" font-size="12" fill="#1e293b">📌 AMC8基础班 · 第3课代数正确率 52%</text>
  <text x="1084" y="1573" font-size="11" fill="#64748b">建议：本周补发2道代数专项练习题</text>
  <rect x="1064" y="1598" width="452" height="52" rx="8" fill="white" stroke="#dcfce7" stroke-width="1"/>
  <text x="1084" y="1619" font-size="12" fill="#1e293b">✅ AMC8强化班 · 整体表现良好</text>
  <text x="1084" y="1637" font-size="11" fill="#64748b">本周可适当提升难度，推荐 AMC10 难度题目</text>
  <rect x="1064" y="1662" width="452" height="16" rx="4" fill="#f1f5f9"/>
  <text x="1290" y="1674" font-size="10" fill="#94a3b8" text-anchor="middle">由 AI 分析生成 · 仅供参考</text>

  <!-- ── BOTTOM ANNOTATION ── -->
  <text x="60" y="1720" font-size="11" fill="#94a3b8">注：以上为线框草图，用于确认页面结构和信息层级。确认后将转为高保真 HTML 原型。</text>
  <text x="60" y="1738" font-size="11" fill="#94a3b8">待设计页面：课件管理 · 作业批改（手写板）· 学生数据 · 任务下发 · AI建议</text>

</svg>
